<svg version="1.1" id="Layer_1" xmlns="http://www.w3.org/2000/svg" x="0" y="0" viewBox="0 0 950.8 950.8" xml:space="preserve"><style type="text/css">.st4{fill:#cafbe2}</style><path d="M475.4 943.3c-63.2 0-124.4-12.4-182.1-36.8-55.7-23.6-105.8-57.3-148.7-100.3-43-43-76.7-93-100.3-148.7-24.4-57.7-36.8-119-36.8-182.1S19.9 351 44.3 293.3c23.6-55.7 57.3-105.8 100.3-148.7 43-43 93-76.7 148.7-100.3C351 19.9 412.3 7.5 475.4 7.5s124.4 12.4 182.1 36.8c55.7 23.6 105.8 57.3 148.7 100.3 43 43 76.7 93 100.3 148.7 24.4 57.7 36.8 119 36.8 182.1S931 599.9 906.6 657.6c-23.6 55.7-57.3 105.8-100.3 148.7-43 43-93 76.7-148.7 100.3-57.7 24.4-119 36.7-182.2 36.7z" fill="#2a2a2a"/><path class="st4" d="M475.4 15c254.3 0 460.4 206.1 460.4 460.4S729.7 935.8 475.4 935.8 15 729.7 15 475.4 221.1 15 475.4 15m0-15c-64.2 0-126.4 12.6-185 37.4-56.6 23.9-107.5 58.2-151.1 101.9C95.6 183 61.4 233.8 37.4 290.4 12.6 349 0 411.2 0 475.4s12.6 126.4 37.4 185.1C61.3 717.1 95.6 768 139.3 811.6c43.7 43.7 94.5 77.9 151.1 101.9 58.6 24.8 120.9 37.4 185.1 37.4s126.4-12.6 185.1-37.4c56.6-23.9 107.5-58.2 151.1-101.9 43.7-43.7 77.9-94.5 101.9-151.1 24.8-58.6 37.4-120.9 37.4-185.1s-12.7-126.4-37.5-185c-23.9-56.6-58.2-107.5-101.9-151.1-43.7-43.7-94.5-77.9-151.1-101.9C601.9 12.6 539.6 0 475.4 0z"/><path class="st4" d="M63.2 394.2l4.2-17.4c3.4-14.1 9.5-19.8 19.1-17.5l3.6.9c8.9 2.1 14.5 8 10.3 25.3l-1.6 6.6 26.2 6.3-2.4 10.1-59.4-14.3zm30.3-3.5l1.4-5.7c2.6-10.8-1.2-13.3-7.3-14.8l-3.2-.8c-4.8-1.2-9.4-.5-11.8 9.3l-1.6 6.5 22.5 5.5zm18.2-48.4l26.6 10.3-3.8 9.7-56.9-22.1 6.2-15.9c5.3-13.7 11.6-19 21-15.3l2.6 1c7.7 3 9.2 8.6 8.4 13.9 3.6-5.3 7.4-6.9 15-3.9 4.9 1.9 13.9 5.6 17.9 5.9l-3.7 9.4c-4-.2-13.5-4.1-17.5-5.7-7.4-2.9-10.1-2-13.6 7l-2.2 5.7zm-5.1-2l2.3-5.9c3.4-8.6 1.1-12.1-5-14.5l-2.5-1c-5.2-2-9.2-1-12.7 8.2l-2.1 5.5 20 7.7zm25.6-80.3l26.9 15c9.4 5.2 10.6 14 3.5 26.7-7.4 13.2-15.3 15.1-24.1 10.2l-26.9-15c-9.1-5.1-10.1-14.3-3.4-26.4 7-12.6 15.6-15.2 24-10.5zm-15.7 27.5l27.7 15.4c6 3.3 10.3 1.2 13.5-4.5 3.4-6 2.8-10.5-3.5-14l-27.4-15.3c-5.7-3.2-10.1-1.6-13.5 4.6-3.5 6.1-2.6 10.5 3.2 13.8zm12.8-49.8l20.2-27.4 4.8 3.6-14 19 16 11.8 13.2-17.9 4.8 3.6-13.2 17.9 23.5 17.3-6.2 8.4-49.1-36.3zm74.3-40l-15 16 17.2 16.1 17-18.2 3.4 5.1-23.1 24.8-44.6-41.7 22.9-24.5 4.4 4.1-15.8 16.9 14.3 13.3 15-16 4.3 4.1zm21.7-2.9l2.3 2.7c3.7 4.4 8.1 4.7 13.4.3 5.3-4.5 5.4-8.7 1.1-13.8-4.6-5.5-8.3-6-19.4-3.2-11.3 2.8-17.3 3.9-23.1-3-5-5.9-6.9-14 4.8-23.8 11.2-9.3 18-7.2 23-1.3l1.8 2.2-7.9 6.7-1.7-2c-3.3-3.9-6.6-5.4-11.7-1-5.1 4.3-4.1 8.2-1 11.9 3.7 4.3 6.4 4.8 16 2.3 14.5-3.8 20.1-3.9 26.6 3.9 5.5 6.6 7.6 15.1-5 25.7-12.1 10.2-19.6 8.1-24.8 2l-2.3-2.7 7.9-6.9zm36.1-28.5l1.9 3c3.1 4.8 7.5 5.7 13.2 1.9 5.9-3.8 6.4-8 2.8-13.6-3.9-6-7.5-6.9-18.9-5.5-11.5 1.4-17.7 1.8-22.6-5.8-4.2-6.5-5.2-14.7 7.7-23.1 12.2-7.9 18.7-4.9 23 1.5l1.5 2.4-8.7 5.6-1.5-2.2c-2.8-4.2-5.9-6.1-11.5-2.5-5.6 3.7-5.1 7.7-2.4 11.7 3.1 4.8 5.8 5.6 15.6 4.2 14.9-2 20.4-1.4 26 7.1 4.7 7.2 5.7 15.9-8.1 24.9-13.2 8.6-20.5 5.7-24.9-1.1l-1.9-2.9 8.8-5.6zm23.7-65l28.4 54.1-9.2 4.8-28.4-54.1 9.2-4.8zm59.9-9.7l11.4 28.6c4 10-.6 17.6-14.1 23-14.1 5.6-21.4 2.1-25.1-7.2l-11.4-28.7c-3.8-9.6 1.1-17.5 14-22.6 13.3-5.3 21.6-2 25.2 6.9zm-29.5 11.5l11.8 29.4c2.5 6.4 7.3 7.4 13.4 5 6.4-2.6 8.8-6.4 6.1-13.1l-11.6-29.2c-2.4-6-6.9-7.6-13.4-5-6.7 2.8-8.8 6.7-6.3 12.9zm56.2 28.3L357.6 72l12.1-2.9c7.7 9.8 28.4 37.8 31.1 42.3l.2-.1c-2.5-7.9-4.6-16.2-6.9-25.9l-5-21 9.5-2.3 14.1 59.4-11.7 2.8c-7.7-9.9-29.1-39.4-32-43.7h-.1c2.3 7 4.8 16.4 7.4 27.2l5 21.2-9.6 2.4zm60.9-31.8l-2.9 19.8-10.5.9L429.7 58l14.8-1.3 22.1 59.3-10.8 1-6.8-19-16.4 1.6zm14.5-7.3c-4.6-13.1-8-23.2-9.4-28.9h-.4c.1 4.7-2.2 18.7-3.8 30.1l13.6-1.2zm28.3-36.8l10.4.3L484 111l24.6.8-1.3 5.8-33.8-1.1 1.9-61zm47 2.6l10.3 1.5-7.9 54.6 24.3 3.5-2 5.6-33.5-4.8 8.8-60.4zm41.1 69.6l5.9-22c.2-.7.1-1.1 0-1.7l-7.9-40 11 3c1.8 11.9 4.1 26.2 4.2 32h.1c3.3-5.2 12.6-16.6 19.6-25.6l10.6 2.9-27 30.9c-.2.4-.5.8-.8 1.7l-5.7 21.5-10-2.7zm76.1-39l16.1 7.7c13.1 6.2 17.4 13.4 13.1 22.3l-1.6 3.4c-3.9 8.3-10.8 12.5-26.9 4.9l-6.1-2.9-11.6 24.3-9.4-4.5 26.4-55.2zm-2.9 30.3l5.2 2.5c10 4.8 13.3 1.6 16-4.1l1.4-3c2.1-4.5 2.4-9.1-6.7-13.4l-6.1-2.9-9.8 20.9zm43.6 27.8l-15.6 23.9-8.7-5.7 33.4-51.1 14.3 9.3c12.3 8 16.2 15.3 10.7 23.7l-1.5 2.3c-4.5 6.9-10.3 7.2-15.4 5.3 4.4 4.6 5.2 8.6.8 15.5-2.9 4.4-8.3 12.5-9.5 16.3l-8.5-5.5c1-3.9 6.8-12.3 9.2-15.9 4.3-6.6 4.1-9.5-4-14.8l-5.2-3.3zm3-4.6l5.3 3.5c7.8 5.1 11.6 3.6 15.2-1.9l1.5-2.3c3-4.7 2.8-8.8-5.4-14.1l-4.9-3.2-11.7 18zm56.6 48.6l-16.7-14.2-15.3 18 19 16.1-4.9 3.6-25.8-21.9 39.5-46.6 25.6 21.7-3.9 4.6-17.7-15-12.6 14.9 16.7 14.2-3.9 4.6zm32.8-12.1l12.1 13.2c9.8 10.7 11.1 18.9 3.8 25.6l-2.7 2.5c-6.8 6.2-14.7 7.6-26.7-5.5l-4.6-5-19.8 18.2-7-7.7 44.9-41.3zm-14.1 27l3.9 4.3c7.5 8.2 11.7 6.5 16.4 2.2l2.4-2.2c3.6-3.3 5.7-7.5-1.1-14.9l-4.5-4.9-17.1 15.5zm22.2 46.6l-18.7 7.3-6-8.6 59.3-21.8 8.5 12.1-40.6 48.7-6.2-8.9 13.1-15.3-9.4-13.5zm13.5 8.9c9.1-10.5 16.2-18.4 20.4-22.5l-.2-.3c-4.1 2.4-17.3 7.4-28 11.6l7.8 11.2zm22.2 30.9l-25.4 13-4.7-9.3 54.3-27.9 7.8 15.2c6.7 13.1 6.5 21.3-2.5 25.9l-2.5 1.3c-7.4 3.8-12.5 1.2-16-3 1.5 6.2.3 10.1-7 13.8-4.6 2.4-13.4 6.7-16.3 9.5l-4.6-9c2.8-2.8 12.1-7.3 15.9-9.3 7-3.6 8.2-6.2 3.8-14.8l-2.8-5.4zm5-2.5l2.9 5.7c4.2 8.3 8.3 8.9 14.1 5.9l2.4-1.2c5-2.5 6.8-6.2 2.4-14.9l-2.7-5.2-19.1 9.7zm25 70.3l-7.5-20.6-22.2 8 8.5 23.4-6.1.7-11.5-31.8 57.4-20.8 11.4 31.6-5.7 2-7.9-21.8-18.3 6.6 7.5 20.6-5.6 2.1zm34.6 6l3.8 17.3c4.5 20.6-2.9 25-12.3 27l-23.6 5.2c-9.2 2-19.2 1.8-23.9-19.8l-3.7-16.7 59.7-13zM829.2 388l1.3 5.8c2.5 11.6 7.2 13.4 15 11.7l25.6-5.6c6.9-1.5 10.7-4.4 8-16.6l-1.3-5.8-48.6 10.5z"/><circle class="st4" cx="86.6" cy="475.4" r="14.7"/><circle class="st4" cx="864.2" cy="475.4" r="14.7"/><path class="st4" d="M888 554.9l-4.2 17.2c-4.9 20.5-13.5 21.2-22.9 18.9l-23.4-5.6c-9.1-2.2-18-6.7-12.8-28.2l4-16.6 59.3 14.3zm-56.3-2.9l-1.4 5.7c-2.8 11.5.6 15.2 8.4 17l25.4 6.1c6.9 1.7 11.5.7 14.5-11.4l1.4-5.8-48.3-11.6zm-1.6 82.4l8.1-20.4-21.9-8.7-9.1 23.1-5-3.5 12.5-31.5 56.8 22.5-12.3 31.2-5.6-2.2 8.5-21.5-18.1-7.2-8.1 20.4-5.8-2.2zm20.4 29.9l-5 9.1-48.4-26.4-11.8 21.6-4.6-3.8 16.2-29.7 53.6 29.2zm-31 51.4L769 681.3l5.9-8.6 50.5 34.4-5.9 8.6zM752.6 703l57.5 26.7-7.3 8.5-25.1-12.8c-7.8-4-17.6-8.6-23-12l-.1.2c4.1 4.6 10.2 13.7 15.3 20.6l16.7 23-7.2 8.4L744 713l8.6-10zm-31 73l16.3-14.6-15.8-17.6-18.5 16.6-2.9-5.4 25.2-22.6 40.8 45.4-25 22.4-4-4.5 17.2-15.5-13-14.5-16.3 14.6-4-4.3zm-22.2 15.3l-16-23.6 8.6-5.9 34.4 50.5-14.1 9.6c-12.1 8.3-20.3 9.1-26 .7l-1.6-2.3c-4.7-6.9-2.7-12.3 1-16.2-5.9 2.3-10 1.5-14.6-5.2-2.9-4.3-8.3-12.5-11.4-15l8.4-5.7c3.2 2.5 8.8 11.1 11.2 14.6 4.5 6.5 7.2 7.4 15.2 2l4.9-3.5zm3.1 4.6l-5.3 3.6c-7.7 5.2-7.8 9.4-4.1 14.8l1.5 2.2c3.1 4.6 7 6 15.1.5l4.9-3.3-12.1-17.8zm-69.7 34.9l19.6-9.8-10.5-21.1-22.3 11.1-1.4-6 30.3-15.1 27.3 54.6-30 15-2.7-5.4 20.7-10.3-8.7-17.5-19.6 9.8-2.7-5.3zm-5.3 36.4l-16.8 5.6c-20 6.7-25.1-.2-28.2-9.4l-7.7-22.9c-3-8.9-3.9-18.8 17.1-25.9l16.2-5.4 19.4 58zM600 817.9l-5.6 1.9c-11.2 3.8-12.5 8.6-10 16.2l8.3 24.8c2.2 6.7 5.5 10.2 17.4 6.2l5.7-1.9-15.8-47.2zm-67.3 67.3l15.7-2 .8 6-41.6 5.2-.8-6 15.6-2-6.9-54.6 10.3-1.3 6.9 54.7zm-81.5-5.5l.5-30.8c.2-10.7 7.3-16 21.9-15.8 15.1.2 20.6 6.4 20.4 16.4l-.5 30.8c-.2 10.4-7.8 15.7-21.6 15.5-14.5-.2-20.8-6.4-20.7-16.1zm31.7.8l.5-31.7c.1-6.9-3.8-9.7-10.4-9.8-6.9-.1-10.6 2.5-10.7 9.7l-.5 31.4c-.1 6.5 3.4 9.6 10.5 9.8 7 .2 10.5-2.7 10.6-9.4zm-76.6-53.1l-4.7 22.3c-.1.7-.1 1.1.1 1.7l10 39.5-11.2-2.4c-2.5-11.8-5.5-25.9-5.9-31.7h-.1c-3.1 5.4-11.6 17.2-18.2 26.6l-10.8-2.3 25.4-32.5c.2-.4.5-.8.7-1.7l4.6-21.7 10.1 2.2zm-89 21.2l10.5-28.9c3.7-10.1 12.1-12.7 25.8-7.7 14.2 5.2 17.4 12.7 13.9 22.1l-10.5 29c-3.5 9.7-12.5 12.3-25.5 7.6-13.5-5-17.5-13-14.2-22.1zm29.7 11.1l10.8-29.8c2.3-6.5-.5-10.4-6.6-12.6-6.5-2.4-10.8-1.1-13.3 5.7l-10.7 29.5c-2.2 6.1.1 10.2 6.7 12.6 6.6 2.5 10.8.9 13.1-5.4zm-63.9-11.1l22.8-41.6c2.4-4.4 1.6-8.8-4.8-12.3-6.6-3.6-10.4-2-12.8 2.6L265.4 839l-9.2-5 22.7-41.5c4.5-8.3 13-9.6 25.2-2.9 11.9 6.5 15.6 13.9 10.9 22.4l-22.8 41.6-9.1-5zm-35.6-60.1l17.2-22.7 8.3 6.3-36.9 48.6-13.6-10.3c-11.7-8.9-15-16.4-8.9-24.4l1.7-2.2c5-6.6 10.8-6.5 15.7-4.2-4.1-4.9-4.6-9 .3-15.5 3.2-4.2 9.2-11.8 10.6-15.6l8.1 6.1c-1.3 3.8-7.7 11.8-10.3 15.2-4.8 6.3-4.7 9.2 3 15l4.8 3.7zm-3.3 4.4l-5.1-3.9c-7.4-5.6-11.4-4.4-15.3.8l-1.6 2.2c-3.4 4.4-3.5 8.6 4.3 14.5l4.7 3.6 13-17.2zm-73.5-28.3l-11.6-13.4c-13.8-16-9.4-23.3-2-29.7l18.2-15.8c7.1-6.1 16-10.7 30.4 6l11.2 12.9-46.2 40zm35.1-44.1l-3.9-4.5c-7.7-9-12.7-8.3-18.8-3.1L163.3 730c-5.3 4.6-7.3 9 .9 18.4l3.9 4.5 37.7-32.4zm-84.1-47.3l26-16.4c9.1-5.7 17.4-2.6 25.2 9.7 8.1 12.8 5.9 20.7-2.5 26L144.3 709c-8.8 5.5-17.4 2.1-24.8-9.6-7.8-12.3-6-21.1 2.2-26.2zm16.6 26.9l26.8-16.9c5.8-3.7 6-8.5 2.5-14-3.7-5.8-7.9-7.5-14-3.6l-26.5 16.7c-5.5 3.5-6.2 8.1-2.5 14.1 3.8 6 8.1 7.3 13.7 3.7zm-42-81.5l28.2-12.4c9.8-4.3 17.6 0 23.4 13.3 6.1 13.9 2.8 21.3-6.4 25.4l-28.2 12.4c-9.5 4.2-17.5-.6-23.1-13.2-5.8-13.2-2.8-21.6 6.1-25.5zm12.4 29.2l29-12.7c6.3-2.8 7.2-7.5 4.5-13.5-2.8-6.3-6.7-8.6-13.3-5.7l-28.7 12.6c-5.9 2.6-7.3 7.1-4.5 13.6 2.9 6.4 6.9 8.4 13 5.7zM104 585l27.5-7.5 2.7 10-58.9 16.1-4.5-16.5c-3.9-14.2-2-22.2 7.8-24.8l2.7-.7c8-2.2 12.5 1.4 15 6.2-.2-6.4 1.8-9.9 9.7-12.1 5-1.4 14.5-3.8 17.9-5.9l2.7 9.8c-3.3 2.2-13.3 4.7-17.4 5.8-7.6 2.1-9.3 4.4-6.8 13.7l1.6 5.9zm-5.3 1.5l-1.7-6.2c-2.4-9-6.3-10.4-12.6-8.7l-2.6.7c-5.4 1.5-8 4.7-5.4 14.1l1.5 5.7 20.8-5.6zm330.7 63.4h-46.6v-349h58.9c49.4 135.3 78 238.9 82.4 258.4h.6c-2.5-44.1-2.9-94.6-2.9-151.7V300.9h46.4v349h-56.6c-50-139.9-79.8-250.6-84.3-268.3h-.5c2.5 42.7 2.7 94.9 2.7 157.6l-.1 110.7z"/></svg>