<svg version="1.1" id="Layer_1" xmlns="http://www.w3.org/2000/svg" x="0" y="0" viewBox="0 0 4145.5 458.4" xml:space="preserve"><path d="M88.9 38.1H0V5.7h212.8v32.4h-88.4v413.3H88.9V38.1zm151-32.4h35.5v191.9h136V5.7h35.5v445.8h-35.5V229.9h-136v221.5h-35.5V5.7zm435.5 224.1H545.6v189.4H690l-5.2 32.3H510.2V5.7h172.1v32.4H545.6v159.3h129.8v32.4zm159 221.6V6.7h75.7c67.6 183.7 101.8 305.4 107.4 329.8h.7c-3.3-56.1-3.7-120.7-3.7-193.4V6.7h59.5v444.8h-72.7C932.6 260.7 897.2 131 891.4 108.9h-.7c3.2 54.5 3.5 121.2 3.5 201.1v141.5h-59.8zM1189.3 6.7v322.2c0 38 11.1 72.9 53.7 72.9 42.3 0 53.2-31.1 53.2-72.6V6.7h65.2v322.5c0 75.7-30.9 129.3-119.6 129.3-86.2 0-117.7-49.4-117.7-128.5V6.7h65.2zM1472 65.1h-85.9V6.7H1623v58.5h-85.9v386.3H1472V65.1zm242.1 188.2v198.1h-64.9V6.7h111.6c73.9 0 114.6 36.1 114.6 113.2v7.8c0 65-30.1 89.8-52.8 98.4 32.6 13.9 47.2 40.5 47.2 103.1v10.2c0 43.3.9 86.7 5.3 112.1H1812c-6.1-23.3-6.2-75.7-6.2-110.8v-9.1c0-58.6-10.9-78.2-59.4-78.2h-32.3zm0-53.7h34.4c45.3 0 61.7-21.6 61.7-69.2v-7.3c0-39-14.7-62.8-57.3-62.8h-38.8v139.3zM1983.8 6.7v444.8h-65.1V6.7h65.1zm112.4 58.4h-85.9V6.7h236.9v58.5h-85.9v386.3h-65.1V65.1zm242.3-58.4v444.8h-65.1V6.7h65.1zm510.4 444.7V6.7h75.7c67.6 183.7 101.8 305.4 107.4 329.8h.7c-3.3-56.1-3.7-120.7-3.7-193.4V6.7h59.5v444.8h-72.7c-68.7-190.7-104.2-320.5-109.9-342.6h-.7c3.2 54.5 3.5 121.2 3.5 201.1v141.5h-59.8zM3206.8 6.7v444.8h-65.1V6.7h65.1zm95.1 320v11.4c2.2 38.6 17.1 66.6 54.1 66.6 36.3 0 50.3-24.7 50.3-63.1 0-44.1-15.1-64.3-68.4-96-62.8-36.2-90.7-64.3-90.7-129.9 0-63.5 32.4-115.8 109.4-115.7 86.8.1 106.9 60.1 107.7 114.2v9.5h-64.1v-8.9c-1.4-28.1-7.7-61.2-44.9-61.2-31.3 0-43 23.1-43 55 0 35.6 12.1 51.8 59.7 78.8 72.9 41.7 100.6 74.2 100.6 147 0 67-32.8 123.8-118.3 123.8-89.3 0-115.4-57.6-117.2-120.4v-11.1h64.8zm259-261.6H3475V6.7h236.9v58.5H3626v386.3h-65.1V65.1zm-967.2 393c-126.3 0-229.1-102.8-229.1-229.1.1-126.2 102.8-229 229.1-229s229.1 102.8 229.1 229.1-102.8 229-229.1 229zm0-396.8c-92.5 0-167.8 75.3-167.8 167.8s75.3 167.8 167.8 167.8c92.5 0 167.8-75.3 167.8-167.8s-75.2-167.8-167.8-167.8zm1284.2 30.4c0-22.6.4-49.6.9-64.5h-1c-5.9 27.5-19.5 76.5-31.1 114.1h-23.4c-8.6-31.7-22.4-87.5-27.9-114.5h-1.1c1.1 15.5 1.7 44.3 1.7 67.2v47.3h-24.9V8.4h40.5c9.5 31 21.4 77.3 25.1 97.5h.2c2.9-17.2 18.1-66.1 28-97.5h38.9v132.8h-26.1V91.7zm153.8 7.8c-3.6 22.4-18.6 43.7-52.7 43.7-41.8 0-56.9-30.5-56.9-68.4 0-37.5 19.3-68.2 58-68.2 35.9 0 49.6 22.9 50.9 43.5h-26.5c-2.7-11-7.1-21.8-25.3-21.8-22.1 0-29.3 22.4-29.3 46.3 0 25.3 7 47 29.7 47 17.7 0 23.1-12.3 25.6-22.2h26.5zm43.3-13.1v54.9h-26.6V8.4h54.1c25.1 0 43 12.4 43 35.9 0 18.1-9.6 26.8-20.7 31.1 13.2 5.1 17.9 15.5 17.9 32v3.5c0 11.8.7 22.9 1.8 30.4h-26.1c-1.9-5.6-2.5-14.5-2.5-30.8V107c0-15.2-5.5-20.5-22.9-20.5h-18zm0-21.5h20.2c12.9 0 23.5-3.4 23.5-18.1 0-12.3-8.9-16.8-19.7-16.8h-24v34.9z" fill="#fff"/></svg>