<?xml version="1.0" encoding="utf-8"?>
<!-- Generator: Adobe Illustrator 25.0.0, SVG Export Plug-In . SVG Version: 6.00 Build 0)  -->
<svg version="1.1" id="Layer_1" xmlns="http://www.w3.org/2000/svg" xmlns:xlink="http://www.w3.org/1999/xlink" x="0px" y="0px"
	 viewBox="0 0 52.8 52.8" style="enable-background:new 0 0 52.8 52.8;" xml:space="preserve">
<style type="text/css">
	.st0{fill:#FFFFFF;stroke:#000000;stroke-miterlimit:10;}
	.st1{fill:#CAFBE2;}
</style>
<g id="Facebook">
	<path id="Shape-3" class="st1" d="M26.4,52.8C11.8,52.8,0,41,0,26.4C0,15.8,6.4,6.2,16.1,2.1c13.4-5.7,28.9,0.6,34.6,14.1
		s-0.6,28.9-14.1,34.6l0,0C33.4,52.1,29.9,52.8,26.4,52.8z M18.8,22.6v4.1H23v12.3h4.7V26.7h4.2l0.8-4.1h-5v-2.9
		c0-0.8,0.5-1.4,1-1.4h4v-4.4h-4c-1.6,0-3,0.7-4.1,1.8C23.6,17,23,18.5,23,20.2v2.4L18.8,22.6z"/>
</g>
</svg>
