<?xml version="1.0" encoding="utf-8"?>
<!-- Generator: Adobe Illustrator 25.0.0, SVG Export Plug-In . SVG Version: 6.00 Build 0)  -->
<svg version="1.1" id="Layer_1" xmlns="http://www.w3.org/2000/svg" xmlns:xlink="http://www.w3.org/1999/xlink" x="0px" y="0px"
	 viewBox="0 0 52.8 52.8" style="enable-background:new 0 0 52.8 52.8;" xml:space="preserve">
<style type="text/css">
	.st0{fill:#FFFFFF;stroke:#000000;stroke-miterlimit:10;}
	.st1{fill:#CAFBE2;}
</style>
<g id="Instagram" transform="translate(345.174)">
	<path id="Shape-2" class="st1" d="M-318.8,52.8c-14.6,0-26.4-11.8-26.4-26.4c0-10.6,6.4-20.2,16.1-24.3
		c13.4-5.7,28.9,0.6,34.6,14.1s-0.6,28.9-14.1,34.6l0,0C-311.7,52.1-315.2,52.8-318.8,52.8z M-329.5,12.7c-1.7,0-3.1,1.4-3.1,3.1
		v21.4c0,1.7,1.4,3.1,3.1,3.1h21.4c1.7,0,3.1-1.4,3.1-3.1V15.7c0-1.7-1.4-3.1-3.1-3.1L-329.5,12.7z M-309.1,37.4h-19.2
		c-0.8,0-1.4-0.6-1.4-1.4V25h2.9c-0.1,0.5-0.1,0.9-0.1,1.4c0,4.6,3.7,8.3,8.3,8.3c4.6,0,8.3-3.7,8.3-8.3c0-0.5,0-0.9-0.1-1.4h2.9v11
		C-307.8,36.8-308.4,37.4-309.1,37.4z M-318.8,31.9c-3,0-5.5-2.5-5.5-5.5s2.5-5.5,5.5-5.5s5.5,2.5,5.5,5.5
		C-313.3,29.5-315.7,31.9-318.8,31.9L-318.8,31.9z M-308.9,20.6h-3.3c-0.5,0-0.8-0.4-0.8-0.8v-3.3c0-0.5,0.4-0.8,0.8-0.8h3.3
		c0.5,0,0.8,0.4,0.8,0.8v3.3C-308,20.3-308.4,20.6-308.9,20.6L-308.9,20.6z"/>
</g>
</svg>
