<?xml version="1.0" encoding="utf-8"?>
<!-- Generator: Adobe Illustrator 25.0.0, SVG Export Plug-In . SVG Version: 6.00 Build 0)  -->
<svg version="1.1" id="Layer_1" xmlns="http://www.w3.org/2000/svg" xmlns:xlink="http://www.w3.org/1999/xlink" x="0px" y="0px"
	 viewBox="0 0 870.3 881.9" style="enable-background:new 0 0 870.3 881.9;" xml:space="preserve">
<style type="text/css">
	.st0{fill:#FFFFFF;}
	.st1{fill:#0D0D0D;}
</style>
<g>
	<g>
		<g>
			<path class="st1" d="M81.9,373.8l-62.7-16l3.2-12.7c13-2.4,49.4-8,54.9-8.4l0.1-0.2c-8.6-1.6-17.4-3.6-27.6-6.2l-22.1-5.6
				l2.6-10.1l62.7,16l-3.1,12.3c-13.1,2.3-51.3,7.9-56.7,8.5l0,0.1c7.7,1.3,17.8,3.5,29.1,6.4l22.4,5.7L81.9,373.8z"/>
			<path class="st1" d="M41.9,283.2l46.1,19.9c4.9,2.1,9.4,0.8,12.5-6.3c3.1-7.3,1.1-11.1-4-13.3l-46.2-19.9l4.4-10.2l46,19.8
				c9.2,4,11.3,12.7,5.5,26.3c-5.7,13.2-13.2,17.8-22.6,13.7l-46.1-19.9L41.9,283.2z"/>
			<path class="st1" d="M75,230.5l-8.6,14.3l-5.5-3.3l22.9-38l5.5,3.3l-8.6,14.2l49.9,30.1l-5.7,9.4L75,230.5z"/>
			<path class="st1" d="M125.5,205.4l23.6,18.8l-6.9,8.6l-50.6-40.3l11.3-14.1c9.7-12.2,17.7-15.5,26.1-8.9l2.3,1.8
				c6.9,5.5,6.6,11.6,4.1,16.7c5.3-4.2,9.6-4.7,16.4,0.7c4.3,3.4,12.3,10,16.2,11.6l-6.7,8.4c-4-1.5-12.3-8.4-15.9-11.2
				c-6.6-5.2-9.6-5.2-16,2.8L125.5,205.4z M121,201.7l4.2-5.3c6.1-7.7,4.9-11.9-0.5-16.2l-2.3-1.8c-4.6-3.7-9-3.9-15.4,4.2l-3.9,4.9
				L121,201.7z"/>
			<path class="st1" d="M137.3,139.9l46.1,45.4l-7.7,7.8l-46.1-45.4L137.3,139.9z"/>
			<path class="st1" d="M162.3,125.5l-12.8,10.8l-4.1-4.9l33.9-28.6l4.1,4.9l-12.7,10.7l37.6,44.6l-8.4,7.1L162.3,125.5z"/>
			<path class="st1" d="M198.2,90l36.9,53.1l-9,6.3l-36.9-53.1L198.2,90z"/>
			<path class="st1" d="M260.2,72.2l15.6,28.6c5.4,10,1.6,18.6-12,25.9c-14.1,7.7-22.3,4.9-27.3-4.4l-15.6-28.7
				c-5.2-9.6-1-18.5,11.9-25.5C246.1,60.8,255.3,63.2,260.2,72.2z M230.5,88l16,29.5c3.5,6.4,8.6,6.9,14.7,3.6
				c6.4-3.5,8.5-7.8,4.8-14.5l-15.9-29.2c-3.3-6-8.2-7.1-14.7-3.5S227.2,81.8,230.5,88z"/>
			<path class="st1" d="M293.1,110.7l-21.8-60.9l12.4-4.4c9.3,9.4,34.2,36.5,37.6,40.9l0.2-0.1c-3.5-8-6.7-16.5-10.3-26.4l-7.7-21.5
				l9.8-3.5l21.8,60.9l-12,4.3c-9.3-9.6-35.2-38.1-38.8-42.3l-0.1,0.1c3.3,7.1,7,16.7,10.9,27.7l7.8,21.7L293.1,110.7z"/>
			<path class="st1" d="M353.5,70.4l-0.9,21.2l-10.9,2.1L346,27l15.4-3l29.7,60.1l-11.3,2.2l-9.1-19.2L353.5,70.4z M368,61.1
				c-6.3-13.3-10.9-23.6-13-29.4l-0.4,0.1c0.6,5-0.3,20-0.8,32.1L368,61.1z"/>
			<path class="st1" d="M394.4,19.4l11-0.7l3.5,58.4l26-1.6l-0.8,6.3l-35.7,2.2L394.4,19.4z"/>
			<path class="st1" d="M444.4,17.6l11,0.6l-3.3,58.4l26,1.5l-1.6,6.1l-35.7-2L444.4,17.6z"/>
			<path class="st1" d="M494.1,87.2l4.3-23.7c0.1-0.7,0.1-1.2-0.1-1.8l-11.8-41.6l11.9,2.2c3,12.4,6.6,27.3,7.2,33.4l0.2,0
				c3.1-5.8,11.8-18.6,18.5-28.7l11.5,2.1l-25.9,35.1c-0.2,0.4-0.5,0.9-0.7,1.8L505,89.1L494.1,87.2z"/>
			<path class="st1" d="M571.6,39.8l16.8,6.6c15,5.9,18.6,13,15.4,21.2l-1.1,2.7c-3.3,8.5-8.5,9.4-13.7,8.7
				c4.8,3.1,9.4,8.2,6.2,16.4l-1.7,4.4c-4.1,10.5-12,13.4-28.4,7L548,100L571.6,39.8z M560.1,98.5l6.2,2.4c10.4,4.1,14.1,2,17-5.3
				l1.6-4.2c2.6-6.6,0-10.8-9.3-14.5l-6.2-2.4L560.1,98.5z M577.9,71.7c8.6,3.4,12.1,2.2,14.8-4.8l1.1-2.7c2.1-5.5,0-9.4-8.3-12.7
				l-6.1-2.4l-7.9,20L577.9,71.7z"/>
			<path class="st1" d="M614.7,106.8l-14.5,15.5l-9.7-5.5L637.3,69l13.6,7.8l-16.7,64.9l-10-5.7l5.6-20.6L614.7,106.8z M631.7,109.3
				c3.9-14.2,7.1-25,9.3-30.8l-0.4-0.2c-2.8,4.2-13.2,15-21.5,23.8L631.7,109.3z"/>
			<path class="st1" d="M678.9,94.7l8.8,6.7L652.4,148l20.7,15.7l-4.7,4.2l-28.5-21.6L678.9,94.7z"/>
			<path class="st1" d="M694.9,164.7l-18,11.2l-7.9-7.8l57.5-34.1l11.2,11l-32.8,58.5l-8.2-8.1l10.7-18.4L694.9,164.7z M710.7,171.4
				c7.4-12.7,13.3-22.3,16.9-27.4l-0.3-0.3c-3.8,3.3-16.6,11-26.9,17.5L710.7,171.4z"/>
			<path class="st1" d="M709.1,208.7l51.8-38.7l7.9,10.5c-6.3,11.6-24.8,43.4-28,47.9l0.1,0.2c6.6-5.7,13.8-11.3,22.2-17.6
				l18.3-13.6l6.2,8.3l-51.8,38.7l-7.6-10.2c6.4-11.7,26.1-44.8,29-49.5l-0.1-0.1c-5.8,5.2-13.9,11.6-23.3,18.6l-18.5,13.8
				L709.1,208.7z"/>
			<path class="st1" d="M777.7,281.8l-1.9,1c-7.2,3.9-16.3,6.1-25.2-10.4c-8.5-15.8-3-22.2,5.4-26.7l29-15.6
				c9.1-4.9,17.5-1.4,24.2,11c8.2,15.3,2.9,21.7-4.5,25.7l-2.2,1.2l-5.3-9.8l2.7-1.4c4.5-2.4,7.6-5.6,3.8-12.8c-3.7-6.8-8-6.7-13-4
				l-29.5,15.9c-5.7,3.1-8.4,7.1-4.7,13.9c3.8,7.1,8.4,6.3,13.7,3.4l2.4-1.3L777.7,281.8z"/>
			<path class="st1" d="M806,319.3l-8.3-21.7l-23.3,8.9l9.4,24.6l-6.4,0.9l-12.8-33.5l60.4-23.1l12.7,33.2l-6,2.3l-8.8-22.9
				l-19.3,7.4l8.3,21.7L806,319.3z"/>
			<path class="st1" d="M842.8,325.4l4.2,18.3c5,21.8-2.8,26.5-12.8,28.8l-24.9,5.7c-9.7,2.2-20.3,2.1-25.5-20.7l-4.1-17.6
				L842.8,325.4z M788,349.3l1.4,6.1c2.8,12.2,7.8,14.1,16,12.2l27-6.2c7.3-1.7,11.3-4.8,8.3-17.7l-1.4-6.2L788,349.3z"/>
		</g>
	</g>
	<g>
		<g>
			<circle class="st1" cx="46.2" cy="441" r="14.7"/>
		</g>
		<g>
			<circle class="st1" cx="823.7" cy="441" r="14.7"/>
		</g>
	</g>
	<g>
		<g>
			<path class="st1" d="M788.3,506.4l62.7,15.7l-3.2,12.7c-13,2.5-49.3,8.3-54.9,8.6l-0.1,0.2c8.6,1.5,17.5,3.6,27.7,6.1l22.1,5.5
				l-2.5,10.1l-62.7-15.7l3.1-12.3c13.1-2.4,51.2-8.2,56.7-8.8l0-0.2c-7.7-1.2-17.8-3.5-29.1-6.3l-22.4-5.6L788.3,506.4z"/>
			<path class="st1" d="M828.7,596.8l-46.2-19.7c-4.9-2.1-9.4-0.8-12.5,6.4c-3.1,7.3-1,11.1,4.1,13.3l46.3,19.7l-4.3,10.2L770,607
				c-9.2-3.9-11.4-12.7-5.6-26.2c5.6-13.2,13.1-17.9,22.5-13.8l46.2,19.7L828.7,596.8z"/>
			<path class="st1" d="M795.9,649.7l8.6-14.4l5.5,3.3l-22.7,38.1l-5.5-3.3l8.5-14.3l-50.1-29.9l5.6-9.5L795.9,649.7z"/>
			<path class="st1" d="M745.5,675l-23.7-18.7l6.8-8.6l50.8,40l-11.2,14.2c-9.6,12.2-17.6,15.6-26,9l-2.3-1.8
				c-6.9-5.4-6.7-11.5-4.2-16.7c-5.3,4.2-9.6,4.7-16.4-0.7c-4.3-3.4-12.4-9.9-16.3-11.5l6.6-8.4c4,1.5,12.4,8.4,15.9,11.2
				c6.6,5.2,9.6,5.2,16-2.9L745.5,675z M750.1,678.6l-4.2,5.3c-6.1,7.7-4.9,11.9,0.5,16.2l2.3,1.8c4.6,3.7,9,3.8,15.4-4.3l3.9-4.9
				L750.1,678.6z"/>
			<path class="st1" d="M734,740.5l-46.3-45.2l7.7-7.9l46.3,45.2L734,740.5z"/>
			<path class="st1" d="M709.1,755.1l12.8-10.8l4.1,4.9l-33.8,28.8l-4.1-4.9l12.7-10.8L663,717.8l8.4-7.1L709.1,755.1z"/>
			<path class="st1" d="M673.5,790.7l-37.2-52.9l9-6.3l37.2,52.9L673.5,790.7z"/>
			<path class="st1" d="M611.6,808.8l-15.7-28.5c-5.5-10-1.7-18.6,11.8-26c14-7.7,22.2-5,27.3,4.3l15.8,28.6
				c5.3,9.6,1.1,18.5-11.7,25.6C625.7,820.2,616.5,817.8,611.6,808.8z M641.1,792.9l-16.2-29.4c-3.5-6.4-8.6-6.9-14.7-3.5
				c-6.4,3.5-8.4,7.8-4.7,14.6l16,29.1c3.3,6,8.2,7.1,14.7,3.5C642.8,803.6,644.5,799.1,641.1,792.9z"/>
			<path class="st1" d="M578.4,770.5l22.1,60.8l-12.3,4.5c-9.3-9.3-34.4-36.3-37.8-40.7l-0.2,0.1c3.5,8,6.8,16.5,10.4,26.4l7.8,21.4
				l-9.8,3.5l-22.1-60.8l11.9-4.3c9.3,9.5,35.4,37.9,39,42.1l0.1-0.1c-3.3-7.1-7.1-16.7-11.1-27.7l-7.9-21.7L578.4,770.5z"/>
			<path class="st1" d="M518.2,811.1l0.8-21.2l10.9-2.2l-4.1,66.7l-15.4,3.1l-30-60l11.3-2.2l9.2,19.2L518.2,811.1z M503.7,820.5
				c6.3,13.3,11,23.5,13.2,29.3l0.4-0.1c-0.6-5,0.2-20,0.6-32.1L503.7,820.5z"/>
			<path class="st1" d="M477.6,862.3l-11,0.7l-3.8-58.3l-26,1.7l0.8-6.3l35.7-2.3L477.6,862.3z"/>
			<path class="st1" d="M427.6,864.4l-11-0.6l3-58.4l-26-1.3l1.5-6.1l35.8,1.8L427.6,864.4z"/>
			<path class="st1" d="M377.5,795l-4.2,23.8c-0.1,0.7,0,1.2,0.1,1.8l12,41.5l-11.9-2.1c-3-12.4-6.7-27.2-7.4-33.4l-0.2,0
				c-3.1,5.8-11.7,18.6-18.3,28.8l-11.5-2l25.8-35.3c0.2-0.4,0.5-0.9,0.6-1.8l4.1-23.2L377.5,795z"/>
			<path class="st1" d="M300.3,842.8l-16.8-6.5c-15-5.8-18.7-12.9-15.5-21.1l1.1-2.7c3.3-8.5,8.4-9.5,13.7-8.7
				c-4.8-3.1-9.4-8.1-6.2-16.3l1.7-4.5c4.1-10.5,11.9-13.5,28.3-7.1l17.1,6.6L300.3,842.8z M293.8,811c-8.6-3.3-12.1-2.2-14.8,4.8
				l-1,2.7c-2.1,5.5,0.1,9.4,8.3,12.6l6.1,2.4l7.8-20.1L293.8,811z M311.5,784l-6.2-2.4c-10.4-4-14.1-1.9-17,5.4l-1.6,4.2
				c-2.5,6.6,0,10.8,9.3,14.4l6.2,2.4L311.5,784z"/>
			<path class="st1" d="M256.9,776l14.4-15.5l9.7,5.5l-46.6,48l-13.7-7.7l16.3-65l10,5.7l-5.5,20.6L256.9,776z M239.8,773.7
				c-3.8,14.2-7,25-9.1,30.8l0.4,0.2c2.8-4.2,13.2-15,21.4-23.9L239.8,773.7z"/>
			<path class="st1" d="M192.7,788.4l-8.8-6.6L219,735l-20.8-15.6l4.7-4.2l28.6,21.5L192.7,788.4z"/>
			<path class="st1" d="M176.4,718.6l18-11.3l8,7.8L145,749.4l-11.2-11l32.5-58.6l8.2,8.1l-10.6,18.5L176.4,718.6z M160.5,711.9
				c-7.4,12.7-13.2,22.4-16.8,27.5l0.3,0.3c3.8-3.3,16.6-11.1,26.8-17.6L160.5,711.9z"/>
			<path class="st1" d="M161.9,674.5l-51.6,38.9l-7.9-10.5c6.2-11.7,24.6-43.6,27.8-48.1l-0.1-0.2c-6.6,5.7-13.7,11.3-22.2,17.7
				l-18.2,13.7l-6.2-8.3l51.6-38.9l7.6,10.1c-6.4,11.7-25.9,45-28.8,49.6l0.1,0.1c5.8-5.2,13.9-11.7,23.2-18.7l18.4-13.9
				L161.9,674.5z"/>
			<path class="st1" d="M93,601.8l1.9-1c7.2-3.9,16.3-6.2,25.2,10.3c8.6,15.7,3.1,22.2-5.3,26.8L86,653.6c-9.1,5-17.5,1.4-24.2-10.8
				c-8.3-15.2-3-21.7,4.4-25.7l2.2-1.2l5.4,9.8l-2.7,1.5c-4.5,2.5-7.6,5.6-3.7,12.8c3.7,6.8,8,6.7,13,4l29.5-16.1
				c5.7-3.1,8.4-7.1,4.6-14c-3.9-7.1-8.4-6.3-13.8-3.4l-2.4,1.3L93,601.8z"/>
			<path class="st1" d="M64.5,564.5l8.4,21.6l23.3-9l-9.5-24.6l6.4-0.9l13,33.4l-60.3,23.4L33,575.3l5.9-2.3l8.9,22.9l19.3-7.5
				l-8.4-21.6L64.5,564.5z"/>
			<path class="st1" d="M27.7,558.6l-4.3-18.3c-5.1-21.7,2.6-26.5,12.6-28.8l24.9-5.9c9.7-2.3,20.2-2.2,25.6,20.5l4.1,17.6
				L27.7,558.6z M82.3,534.4l-1.4-6.1c-2.9-12.2-7.9-14-16.1-12.1l-27,6.4c-7.3,1.7-11.2,4.8-8.2,17.7l1.5,6.2L82.3,534.4z"/>
		</g>
	</g>
	<g>
		<g>
			<path class="st1" d="M388.9,615.4h-46.6v-349h58.9c49.4,135.3,78,238.9,82.4,258.4h0.6c-2.6-44.1-2.9-94.6-2.9-151.7V266.5h46.4
				v349H471c-50-139.9-79.8-250.6-84.3-268.3h-0.5c2.5,42.7,2.7,94.9,2.7,157.6L388.9,615.4L388.9,615.4z"/>
		</g>
	</g>
</g>
</svg>
