<?xml version="1.0" encoding="utf-8"?>
<!-- Generator: Adobe Illustrator 25.0.0, SVG Export Plug-In . SVG Version: 6.00 Build 0)  -->
<svg version="1.1" id="Layer_1" xmlns="http://www.w3.org/2000/svg" xmlns:xlink="http://www.w3.org/1999/xlink" x="0px" y="0px"
	 viewBox="0 0 4145.5 458.4" style="enable-background:new 0 0 4145.5 458.4;" xml:space="preserve">
<style type="text/css">
	.st0{fill:#FFFFFF;}
</style>
<g>
	<path class="st0" d="M88.9,38.1H0V5.7h212.8v32.4h-88.4v413.3H88.9V38.1z"/>
	<path class="st0" d="M239.9,5.7h35.5v191.9h136V5.7h35.5v445.8h-35.5V229.9h-136v221.5h-35.5V5.7z"/>
	<path class="st0" d="M675.4,229.8H545.6v189.4H690l-5.2,32.3H510.2V5.7h172.1v32.4H545.6v159.3h129.8V229.8z"/>
	<path class="st0" d="M834.4,451.4V6.7h75.7c67.6,183.7,101.8,305.4,107.4,329.8h0.7c-3.3-56.1-3.7-120.7-3.7-193.4V6.7h59.5v444.8
		h-72.7C932.6,260.7,897.2,131,891.4,108.9h-0.7c3.2,54.5,3.5,121.2,3.5,201.1v141.5H834.4z"/>
	<path class="st0" d="M1189.3,6.7v322.2c0,38,11.1,72.9,53.7,72.9c42.3,0,53.2-31.1,53.2-72.6V6.7h65.2v322.5
		c0,75.7-30.9,129.3-119.6,129.3c-86.2,0-117.7-49.4-117.7-128.5V6.7H1189.3z"/>
	<path class="st0" d="M1472,65.1h-85.9V6.7h236.9v58.5h-85.9v386.3H1472V65.1z"/>
	<path class="st0" d="M1714.1,253.3v198.1h-64.9V6.7h111.6c73.9,0,114.6,36.1,114.6,113.2v7.8c0,65-30.1,89.8-52.8,98.4
		c32.6,13.9,47.2,40.5,47.2,103.1v10.2c0,43.3,0.9,86.7,5.3,112.1H1812c-6.1-23.3-6.2-75.7-6.2-110.8v-9.1
		c0-58.6-10.9-78.2-59.4-78.2H1714.1z M1714.1,199.6h34.4c45.3,0,61.7-21.6,61.7-69.2v-7.3c0-39-14.7-62.8-57.3-62.8h-38.8V199.6z"
		/>
	<path class="st0" d="M1983.8,6.7v444.8h-65.1V6.7H1983.8z"/>
	<path class="st0" d="M2096.2,65.1h-85.9V6.7h236.9v58.5h-85.9v386.3h-65.1V65.1z"/>
	<path class="st0" d="M2338.5,6.7v444.8h-65.1V6.7H2338.5z"/>
	<path class="st0" d="M2848.9,451.4V6.7h75.7c67.6,183.7,101.8,305.4,107.4,329.8h0.7c-3.3-56.1-3.7-120.7-3.7-193.4V6.7h59.5v444.8
		h-72.7c-68.7-190.7-104.2-320.5-109.9-342.6h-0.7c3.2,54.5,3.5,121.2,3.5,201.1v141.5H2848.9z"/>
	<path class="st0" d="M3206.8,6.7v444.8h-65.1V6.7H3206.8z"/>
	<path class="st0" d="M3301.9,326.7v11.4c2.2,38.6,17.1,66.6,54.1,66.6c36.3,0,50.3-24.7,50.3-63.1c0-44.1-15.1-64.3-68.4-96
		c-62.8-36.2-90.7-64.3-90.7-129.9c0-63.5,32.4-115.8,109.4-115.7c86.8,0.1,106.9,60.1,107.7,114.2v9.5h-64.1v-8.9
		c-1.4-28.1-7.7-61.2-44.9-61.2c-31.3,0-43,23.1-43,55c0,35.6,12.1,51.8,59.7,78.8c72.9,41.7,100.6,74.2,100.6,147
		c0,67-32.8,123.8-118.3,123.8c-89.3,0-115.4-57.6-117.2-120.4v-11.1H3301.9z"/>
	<path class="st0" d="M3560.9,65.1H3475V6.7h236.9v58.5H3626v386.3h-65.1V65.1z"/>
	<path class="st0" d="M2593.7,458.1c-126.3,0-229.1-102.8-229.1-229.1C2364.7,102.8,2467.4,0,2593.7,0
		c126.3,0,229.1,102.8,229.1,229.1C2822.8,355.4,2720,458.1,2593.7,458.1z M2593.7,61.3c-92.5,0-167.8,75.3-167.8,167.8
		s75.3,167.8,167.8,167.8c92.5,0,167.8-75.3,167.8-167.8S2686.3,61.3,2593.7,61.3z"/>
	<g>
		<path class="st0" d="M3877.9,91.7c0-22.6,0.4-49.6,0.9-64.5h-1c-5.9,27.5-19.5,76.5-31.1,114.1h-23.4
			c-8.6-31.7-22.4-87.5-27.9-114.5h-1.1c1.1,15.5,1.7,44.3,1.7,67.2v47.3h-24.9V8.4h40.5c9.5,31,21.4,77.3,25.1,97.5h0.2
			c2.9-17.2,18.1-66.1,28-97.5h38.9v132.8h-26.1V91.7z"/>
		<path class="st0" d="M4031.7,99.5c-3.6,22.4-18.6,43.7-52.7,43.7c-41.8,0-56.9-30.5-56.9-68.4c0-37.5,19.3-68.2,58-68.2
			c35.9,0,49.6,22.9,50.9,43.5h-26.5c-2.7-11-7.1-21.8-25.3-21.8c-22.1,0-29.3,22.4-29.3,46.3c0,25.3,7,47,29.7,47
			c17.7,0,23.1-12.3,25.6-22.2H4031.7z"/>
		<path class="st0" d="M4075,86.4v54.9h-26.6V8.4h54.1c25.1,0,43,12.4,43,35.9c0,18.1-9.6,26.8-20.7,31.1
			c13.2,5.1,17.9,15.5,17.9,32v3.5c0,11.8,0.7,22.9,1.8,30.4h-26.1c-1.9-5.6-2.5-14.5-2.5-30.8v-3.5c0-15.2-5.5-20.5-22.9-20.5H4075
			z M4075,64.9h20.2c12.9,0,23.5-3.4,23.5-18.1c0-12.3-8.9-16.8-19.7-16.8H4075V64.9z"/>
	</g>
</g>
</svg>
