<?xml version="1.0" encoding="utf-8"?>
<!-- Generator: Adobe Illustrator 25.0.0, SVG Export Plug-In . SVG Version: 6.00 Build 0)  -->
<svg version="1.1" id="Layer_1" xmlns="http://www.w3.org/2000/svg" xmlns:xlink="http://www.w3.org/1999/xlink" x="0px" y="0px"
	 viewBox="0 0 950.8 950.8" style="enable-background:new 0 0 950.8 950.8;" xml:space="preserve">
<style type="text/css">
	.st0{fill:#F3B762;}
	.st1{fill:#2A2A2A;}
	.st2{fill:#E2E2E2;}
	.st3{fill:#CB4440;}
	.st4{fill:#CAFBE2;}
	.st5{fill:#253A3D;}
	.st6{fill:#0D0D0D;}
	.st7{fill:#177F7A;}
	.st8{fill:#FFA397;}
	.st9{fill:#FFFFFF;}
	.st10{fill:#FFF2D2;}
</style>
<g>
	<path class="st1" d="M475.4,943.3c-63.2,0-124.4-12.4-182.1-36.8c-55.7-23.6-105.8-57.3-148.7-100.3s-76.7-93-100.3-148.7
		c-24.4-57.7-36.8-119-36.8-182.1S19.9,351,44.3,293.3c23.6-55.7,57.3-105.8,100.3-148.7s93-76.7,148.7-100.3
		C351,19.9,412.3,7.5,475.4,7.5s124.4,12.4,182.1,36.8c55.7,23.6,105.8,57.3,148.7,100.3s76.7,93,100.3,148.7
		c24.4,57.7,36.8,119,36.8,182.1S931,599.9,906.6,657.6c-23.6,55.7-57.3,105.8-100.3,148.7s-93,76.7-148.7,100.3
		C599.9,931,538.6,943.3,475.4,943.3z"/>
	<g>
		<path class="st0" d="M475.4,15c254.3,0,460.4,206.1,460.4,460.4S729.7,935.8,475.4,935.8S15,729.7,15,475.4S221.1,15,475.4,15
			 M475.4,0C411.2,0,349,12.6,290.4,37.4c-56.6,23.9-107.5,58.2-151.1,101.9c-43.7,43.7-77.9,94.5-101.9,151.1
			C12.6,349,0,411.2,0,475.4c0,64.2,12.6,126.4,37.4,185.1c23.9,56.6,58.2,107.5,101.9,151.1c43.7,43.7,94.5,77.9,151.1,101.9
			c58.6,24.8,120.9,37.4,185.1,37.4s126.4-12.6,185.1-37.4c56.6-23.9,107.5-58.2,151.1-101.9c43.7-43.7,77.9-94.5,101.9-151.1
			c24.8-58.6,37.4-120.9,37.4-185.1c0-64.2-12.6-126.4-37.4-185.1c-23.9-56.6-58.2-107.5-101.9-151.1
			c-43.7-43.7-94.5-77.9-151.1-101.9C601.9,12.6,539.6,0,475.4,0L475.4,0z"/>
	</g>
</g>
<g>
	<g>
		<g>
			<path class="st0" d="M70.9,396.7L67,415.2l-7-1.5l10.3-49l7,1.5l-3.8,18.4l64.4,13.5l-2.5,12.2L70.9,396.7z"/>
			<path class="st0" d="M75,348.5l4.4-11.6l28.2,10.8l8.7-22.7l-28.2-10.8l4.4-11.6l68.1,26.1l-4.4,11.6L123,327.6l-8.7,22.7
				l33.2,12.7l-4.4,11.6L75,348.5z"/>
			<path class="st0" d="M156.4,264.9l-13.2,22.6l24.3,14.2l15-25.7l5.3,5.1l-20.4,34.9l-63-36.8l20.2-34.6l6.2,3.6l-14,23.9
				l20.1,11.8l13.2-22.6L156.4,264.9z"/>
			<path class="st0" d="M206.4,255.9l-53-50.1l10.2-10.8c14.1,4.7,53.1,19.2,58.7,21.9l0.2-0.2c-7.6-6.2-15.2-13.2-23.8-21.3
				l-18.7-17.7l8-8.5l53,50.1l-9.8,10.4c-14.2-4.9-54.9-20.3-60.6-22.7l-0.1,0.1c6.9,5.5,15.6,13.3,25.2,22.3l18.9,17.9L206.4,255.9
				z"/>
			<path class="st0" d="M218,144.3l33.5,45.7c3.6,4.9,8.7,6.2,15.8,1c7.2-5.3,7.4-10.2,3.7-15.2l-33.6-45.8l10.1-7.4l33.4,45.6
				c6.7,9.1,3.8,18.9-9.6,28.7c-13,9.6-23,9.8-29.8,0.4l-33.5-45.7L218,144.3z"/>
			<path class="st0" d="M281.3,111.8l-16.8,8.7l-3.3-6.4l44.5-23l3.3,6.4l-16.7,8.6l30.1,58.4l-11,5.7L281.3,111.8z"/>
			<path class="st0" d="M345.2,117.9l10.9,32.3l-11.8,4L321,85l19.3-6.5c16.6-5.6,26.3-3.9,30.2,7.6l1.1,3.2
				c3.2,9.4-0.8,15-6.4,18.3c7.6-0.7,11.9,1.5,15.1,10.7c2,5.9,5.6,17,8.3,21l-11.5,3.9c-2.9-3.8-6.5-15.5-8.2-20.4
				c-3-9-5.9-10.8-16.9-7.1L345.2,117.9z M343.1,111.6l7.2-2.4c10.5-3.5,12-8.3,9.5-15.7l-1-3.1c-2.1-6.3-6.2-9.2-17.2-5.4l-6.7,2.2
				L343.1,111.6z"/>
			<path class="st0" d="M397.5,63.4l14.5,71.5l-12.2,2.5l-14.5-71.5L397.5,63.4z"/>
			<path class="st0" d="M430.7,65.7l-18.8,1.7l-0.7-7.2l49.9-4.6l0.7,7.2l-18.7,1.7l6.1,65.5l-12.4,1.1L430.7,65.7z"/>
			<path class="st0" d="M487.6,56.3l-1.2,72.9l-12.4-0.2l1.2-72.9L487.6,56.3z"/>
			<path class="st0" d="M556.6,81.5l-5.1,36.4c-1.8,12.7-11,17.9-28.3,15.5c-17.9-2.5-23.4-10.6-21.8-22.4l5.1-36.5
				c1.7-12.3,11.6-17.5,27.9-15.2C551.6,61.7,558.2,70.1,556.6,81.5z M519.2,75.9l-5.3,37.5c-1.1,8.1,3.1,12,10.9,13.1
				c8.2,1.1,12.9-1.4,14.1-10l5.2-37.1c1.1-7.7-2.6-11.9-11-13.1C524.8,65.1,520.3,68.1,519.2,75.9z"/>
			<path class="st0" d="M560.1,138.6L583,69.4l14.1,4.6c1.7,14.8,5.2,56.2,5.1,62.4l0.3,0.1c2.4-9.5,5.5-19.3,9.2-30.6l8.1-24.4
				l11.1,3.7l-22.9,69.3l-13.6-4.5c-1.6-14.9-4.9-58.3-5.2-64.5l-0.2-0.1c-2,8.6-5.4,19.7-9.5,32.2l-8.2,24.7L560.1,138.6z"/>
			<path class="st0" d="M664.3,101l-31.9,65.6l-11.2-5.4l31.9-65.6L664.3,101z"/>
			<path class="st0" d="M662.3,159.4L660,163c-3.7,5.8-2.5,10.9,4.4,15.3c7,4.5,11.9,3.1,16.2-3.6c4.6-7.2,3.9-11.6-3.3-23.3
				c-7.2-11.9-10.6-18.4-4.8-27.4c5-7.8,13.5-12.9,28.9-2.9c14.6,9.4,14.6,18,9.6,25.8l-1.8,2.9l-10.4-6.6l1.7-2.7
				c3.3-5.1,3.8-9.4-3-13.7c-6.7-4.3-10.8-1.7-13.9,3.1c-3.7,5.7-3.2,9,3.1,19.1c9.5,15.2,11.5,21.5,5,31.7
				c-5.5,8.6-14.5,14-31.1,3.4c-15.9-10.2-16.2-19.5-11-27.6l2.3-3.5L662.3,159.4z"/>
			<path class="st0" d="M739.6,159.1l-14.3-12.3l4.7-5.4l37.9,32.7l-4.7,5.4L749,167.2L706,217l-9.4-8.1L739.6,159.1z"/>
			<path class="st0" d="M797.3,278.3c11-7.7,23-15.6,29.6-19.8l-0.1-0.1c-11.7,4.6-43.1,15.7-64.5,23l-7-10
				c12.7-14.6,35.5-41.8,44.6-51.6l-0.2-0.3c-6.7,5.1-19.9,15.1-30.2,22.3l-23.4,16.4l-6.6-9.5l59.8-41.8l10.6,15.1
				c-14,17.6-31.5,39.2-38.2,45.8l0.1,0.1c8.5-3.7,36.7-12.6,57-19l10.3,14.8l-59.8,41.8l-6.9-9.9L797.3,278.3z"/>
			<path class="st0" d="M821.9,351l-2.3,1c-8.5,3.7-18.9,5.4-27.3-14c-8.1-18.5-1.3-25.3,8.5-29.6l34-14.9
				c10.7-4.7,19.8,0.1,26.2,14.5c7.9,17.9,1.3,24.6-7.4,28.5l-2.6,1.1l-5.1-11.5l3.1-1.4c5.3-2.3,9.1-5.6,5.4-14
				c-3.5-8-8.4-8.3-14.3-5.7l-34.7,15.2c-6.7,2.9-10.1,7.2-6.6,15.2c3.7,8.3,8.8,7.9,15.1,5.1l2.8-1.2L821.9,351z"/>
			<path class="st0" d="M841.5,371.6l-33,8.5l-3.1-12l70.7-18.2l5.1,19.8c4.4,17,1.9,26.5-9.7,29.5l-3.2,0.8
				c-9.6,2.5-14.9-1.9-17.8-7.7c0.2,7.6-2.3,11.8-11.8,14.2c-6,1.6-17.4,4.3-21.5,6.7l-3-11.7c4-2.6,16-5.4,20.9-6.6
				c9.2-2.4,11.2-5.1,8.4-16.3L841.5,371.6z M847.9,369.9l1.9,7.4c2.8,10.7,7.4,12.6,14.9,10.6l3.1-0.8c6.5-1.7,9.6-5.5,6.7-16.8
				l-1.7-6.8L847.9,369.9z"/>
		</g>
	</g>
	<g>
		<g>
			<circle class="st0" cx="92.5" cy="475.4" r="14.8"/>
		</g>
		<g>
			<circle class="st0" cx="858.3" cy="475.4" r="14.8"/>
		</g>
	</g>
	<g>
		<g>
			<path class="st0" d="M880.2,553.2l3.8-18.5l7,1.5l-10.1,49l-7-1.5l3.8-18.4L813.2,552l2.5-12.2L880.2,553.2z"/>
			<path class="st0" d="M876.1,601.4l-4.4,11.6l-28.3-10.7l-8.6,22.7l28.3,10.7l-4.4,11.6l-68.2-25.9l4.4-11.6l33.3,12.6l8.6-22.7
				l-33.3-12.6l4.4-11.6L876.1,601.4z"/>
			<path class="st0" d="M795,685.1l13.2-22.6l-24.4-14.2L768.8,674l-5.3-5l20.3-35l63.1,36.7l-20.1,34.7l-6.2-3.6l13.9-23.9
				l-20.1-11.7l-13.2,22.6L795,685.1z"/>
			<path class="st0" d="M745,694.3l53.1,50L788,755c-14.1-4.7-53.1-19-58.8-21.7l-0.2,0.2c7.6,6.2,15.2,13.1,23.9,21.3l18.7,17.6
				l-8,8.5l-53.1-50l9.8-10.4c14.2,4.9,54.9,20.2,60.7,22.5l0.1-0.1c-6.9-5.5-15.6-13.2-25.2-22.2l-19-17.8L745,694.3z"/>
			<path class="st0" d="M733.7,805.9L700,760.2c-3.6-4.9-8.7-6.1-15.8-1c-7.2,5.3-7.3,10.2-3.7,15.2l33.7,45.7l-10.1,7.4l-33.5-45.5
				c-6.7-9.1-3.8-18.8,9.6-28.7c13-9.6,22.9-9.9,29.8-0.5l33.6,45.6L733.7,805.9z"/>
			<path class="st0" d="M670.4,838.5l16.8-8.7l3.3,6.4L646,859.3l-3.3-6.4l16.7-8.6l-30.3-58.4l11-5.7L670.4,838.5z"/>
			<path class="st0" d="M606.5,832.7l-11-32.3l11.8-4l23.5,69.1l-19.3,6.6c-16.6,5.6-26.3,3.9-30.2-7.5l-1.1-3.2
				c-3.2-9.4,0.8-15,6.3-18.4c-7.6,0.8-11.9-1.4-15.1-10.7c-2-5.9-5.6-17-8.3-20.9l11.5-3.9c2.9,3.8,6.6,15.5,8.2,20.4
				c3,8.9,5.9,10.8,16.9,7.1L606.5,832.7z M608.7,838.9l-7.2,2.5c-10.5,3.6-12,8.3-9.5,15.7l1,3.1c2.1,6.3,6.2,9.2,17.2,5.4l6.6-2.3
				L608.7,838.9z"/>
			<path class="st0" d="M554.3,887.3l-14.7-71.5l12.2-2.5l14.7,71.5L554.3,887.3z"/>
			<path class="st0" d="M521.1,885l18.8-1.8l0.7,7.2l-49.9,4.8L490,888l18.7-1.8l-6.2-65.5l12.4-1.2L521.1,885z"/>
			<path class="st0" d="M464.1,894.5l1.2-72.9l12.4,0.2l-1.2,72.9L464.1,894.5z"/>
			<path class="st0" d="M395.1,869.5l5-36.4c1.8-12.7,11-17.9,28.2-15.5c17.9,2.5,23.5,10.5,21.8,22.3l-5,36.5
				c-1.7,12.3-11.5,17.5-27.9,15.2C400.2,889.3,393.6,880.9,395.1,869.5z M432.6,875l5.2-37.5c1.1-8.1-3.2-12-10.9-13.1
				c-8.2-1.1-12.9,1.4-14.1,10l-5.1,37.1c-1.1,7.7,2.7,11.9,11,13.1C427,885.8,431.5,882.9,432.6,875z"/>
			<path class="st0" d="M391.5,812.4l-22.7,69.3l-14.1-4.6c-1.8-14.8-5.3-56.2-5.3-62.4l-0.3-0.1c-2.4,9.5-5.4,19.4-9.1,30.7
				l-8,24.5l-11.1-3.6l22.7-69.3l13.6,4.5c1.6,14.9,5,58.3,5.3,64.5l0.2,0.1c2-8.6,5.3-19.8,9.4-32.3l8.1-24.8L391.5,812.4z"/>
			<path class="st0" d="M287.5,850.3l31.8-65.7l11.2,5.4l-31.8,65.7L287.5,850.3z"/>
			<path class="st0" d="M289.4,791.9l2.3-3.6c3.7-5.8,2.5-10.9-4.4-15.3c-7.1-4.5-11.9-3.1-16.2,3.7c-4.6,7.2-3.8,11.6,3.3,23.3
				c7.3,11.9,10.6,18.4,4.9,27.4c-5,7.8-13.5,12.9-28.9,3c-14.6-9.4-14.6-17.9-9.7-25.8l1.8-2.9l10.4,6.6l-1.7,2.7
				c-3.3,5.1-3.8,9.4,3,13.7c6.8,4.3,10.9,1.7,13.9-3.1c3.6-5.7,3.2-9.1-3.1-19.1c-9.6-15.2-11.6-21.5-5.1-31.7
				c5.5-8.7,14.5-14,31.1-3.4c15.9,10.1,16.3,19.5,11.1,27.6l-2.2,3.5L289.4,791.9z"/>
			<path class="st0" d="M212.1,792.4l14.3,12.3l-4.7,5.5l-38-32.6l4.7-5.5l14.3,12.2l42.8-49.9l9.4,8.1L212.1,792.4z"/>
			<path class="st0" d="M154,673.3c-10.9,7.7-22.9,15.7-29.5,19.9l0.1,0.1c11.7-4.7,43.1-15.8,64.4-23.2l7,9.9
				c-12.6,14.7-35.4,41.9-44.4,51.7l0.2,0.3c6.7-5.2,19.9-15.2,30.1-22.4l23.4-16.4l6.6,9.4l-59.7,42l-10.6-15.1
				c14-17.6,31.4-39.3,38.1-45.9l-0.1-0.1c-8.5,3.7-36.7,12.7-57,19.1l-10.4-14.7l59.7-42l6.9,9.8L154,673.3z"/>
			<path class="st0" d="M129.2,600.7l2.3-1c8.5-3.7,18.9-5.4,27.4,13.9c8.2,18.5,1.4,25.3-8.4,29.6l-33.9,15
				c-10.7,4.7-19.8,0-26.2-14.5c-7.9-17.9-1.4-24.6,7.4-28.5l2.6-1.2l5.1,11.5l-3.1,1.4c-5.3,2.3-9.1,5.6-5.4,14
				c3.5,8,8.4,8.3,14.3,5.7l34.6-15.3c6.7-3,10.1-7.2,6.5-15.3c-3.7-8.3-8.9-7.8-15.1-5.1l-2.8,1.2L129.2,600.7z"/>
			<path class="st0" d="M109.6,580.1l33-8.6l3.1,12l-70.6,18.3l-5.1-19.7c-4.4-17-2-26.5,9.7-29.5l3.2-0.8
				c9.6-2.5,14.9,1.9,17.9,7.6c-0.2-7.6,2.3-11.8,11.8-14.3c6-1.6,17.4-4.3,21.5-6.8l3,11.7c-4,2.6-16,5.4-20.9,6.7
				c-9.1,2.4-11.2,5.1-8.3,16.3L109.6,580.1z M103.2,581.8l-1.9-7.4c-2.8-10.7-7.4-12.5-14.9-10.6l-3.1,0.8
				c-6.4,1.7-9.6,5.5-6.6,16.8l1.8,6.8L103.2,581.8z"/>
		</g>
	</g>
	<g>
		<g>
			<path class="st0" d="M430.9,644.1h-45.1V306.8h57c47.7,130.8,75.4,230.9,79.6,249.7h0.6c-2.5-42.6-2.8-91.4-2.8-146.6V306.8H565
				v337.3h-54.7c-48.3-135.2-77.1-242.2-81.5-259.3h-0.5c2.4,41.3,2.6,91.7,2.6,152.3L430.9,644.1L430.9,644.1z"/>
		</g>
	</g>
</g>
</svg>
