<?xml version="1.0" encoding="utf-8"?>
<!-- Generator: Adobe Illustrator 25.0.0, SVG Export Plug-In . SVG Version: 6.00 Build 0)  -->
<svg version="1.1" id="Layer_1" xmlns="http://www.w3.org/2000/svg" xmlns:xlink="http://www.w3.org/1999/xlink" x="0px" y="0px"
	 viewBox="0 0 788.5 788.5" style="enable-background:new 0 0 788.5 788.5;" xml:space="preserve">
<style type="text/css">
	.st0{fill:#FFFFFF;}
</style>
<g>
	<path d="M347.7,570.8h-47.2V217.7h59.6c50,136.9,78.9,241.8,83.3,261.5h0.6c-2.6-44.6-2.9-95.7-2.9-153.5v-108h46.9v353.1h-57.3
		c-50.6-141.6-80.7-253.6-85.3-271.5h-0.5c2.5,43.2,2.8,96,2.8,159.5L347.7,570.8L347.7,570.8z"/>
	<path d="M394.1,788.5c-103,0-200.2-39.4-274.3-111.3C44.2,603.9,1.6,505.5,0,400.2C-1.6,295,37.9,195.3,111.3,119.7
		C184.6,44.2,283,1.6,388.3,0c105.3-1.6,204.9,37.9,280.5,111.2c75.6,73.3,118.1,171.7,119.7,277c1.6,105.3-37.9,204.9-111.2,280.5
		c-73.3,75.6-171.7,118.1-277,119.7C398.2,788.5,396.1,788.5,394.1,788.5z M394.4,45.6c-1.8,0-3.6,0-5.4,0
		c-93.1,1.4-180.1,39-244.9,105.8c-64.8,66.8-99.8,154.9-98.3,248c1.4,93.1,39,180.1,105.8,244.9c66.8,64.8,154.9,99.8,248,98.3
		c93.1-1.4,180.1-39,244.9-105.8s99.8-154.9,98.3-248c-1.4-93.1-39-180.1-105.8-244.9C571.5,80.5,485.5,45.6,394.4,45.6z"/>
</g>
</svg>
