<?xml version="1.0" encoding="utf-8"?>
<!-- Generator: Adobe Illustrator 25.0.0, SVG Export Plug-In . SVG Version: 6.00 Build 0)  -->
<svg version="1.1" id="Layer_1" xmlns="http://www.w3.org/2000/svg" xmlns:xlink="http://www.w3.org/1999/xlink" x="0px" y="0px"
	 viewBox="0 0 950.8 950.8" style="enable-background:new 0 0 950.8 950.8;" xml:space="preserve">
<style type="text/css">
	.st0{fill:#F3B762;}
	.st1{fill:#2A2A2A;}
	.st2{fill:#E2E2E2;}
	.st3{fill:#CB4440;}
	.st4{fill:#CAFBE2;}
	.st5{fill:#253A3D;}
	.st6{fill:#0D0D0D;}
	.st7{fill:#177F7A;}
	.st8{fill:#FFA397;}
	.st9{fill:#FFFFFF;}
	.st10{fill:#FFF2D2;}
</style>
<g>
	<path class="st1" d="M475.4,943.3c-63.2,0-124.4-12.4-182.1-36.8c-55.7-23.6-105.8-57.3-148.7-100.3c-43-43-76.7-93-100.3-148.7
		c-24.4-57.7-36.8-119-36.8-182.1S19.9,351,44.3,293.3c23.6-55.7,57.3-105.8,100.3-148.7c43-43,93-76.7,148.7-100.3
		C351,19.9,412.3,7.5,475.4,7.5s124.4,12.4,182.1,36.8c55.7,23.6,105.8,57.3,148.7,100.3c43,43,76.7,93,100.3,148.7
		c24.4,57.7,36.8,119,36.8,182.1S931,599.9,906.6,657.6c-23.6,55.7-57.3,105.8-100.3,148.7c-43,43-93,76.7-148.7,100.3
		C599.9,931,538.6,943.3,475.4,943.3z"/>
	<path class="st4" d="M475.4,15c254.3,0,460.4,206.1,460.4,460.4S729.7,935.8,475.4,935.8S15,729.7,15,475.4S221.1,15,475.4,15
		 M475.4,0C411.2,0,349,12.6,290.4,37.4c-56.6,23.9-107.5,58.2-151.1,101.9c-43.7,43.7-77.9,94.5-101.9,151.1
		C12.6,349,0,411.2,0,475.4s12.6,126.4,37.4,185.1c23.9,56.6,58.2,107.5,101.9,151.1c43.7,43.7,94.5,77.9,151.1,101.9
		c58.6,24.8,120.9,37.4,185.1,37.4s126.4-12.6,185.1-37.4c56.6-23.9,107.5-58.2,151.1-101.9c43.7-43.7,77.9-94.5,101.9-151.1
		c24.8-58.6,37.4-120.9,37.4-185.1S938.3,349,913.5,290.4c-23.9-56.6-58.2-107.5-101.9-151.1c-43.7-43.7-94.5-77.9-151.1-101.9
		C601.9,12.6,539.6,0,475.4,0L475.4,0z"/>
</g>
<g>
	<g>
		<g>
			<path class="st4" d="M63.2,394.2l4.2-17.4c3.4-14.1,9.5-19.8,19.1-17.5l3.6,0.9c8.9,2.1,14.5,8,10.3,25.3l-1.6,6.6l26.2,6.3
				l-2.4,10.1L63.2,394.2z M93.5,390.7l1.4-5.7c2.6-10.8-1.2-13.3-7.3-14.8l-3.2-0.8c-4.8-1.2-9.4-0.5-11.8,9.3l-1.6,6.5L93.5,390.7
				z"/>
			<path class="st4" d="M111.7,342.3l26.6,10.3l-3.8,9.7l-56.9-22.1l6.2-15.9c5.3-13.7,11.6-19,21-15.3l2.6,1
				c7.7,3,9.2,8.6,8.4,13.9c3.6-5.3,7.4-6.9,15-3.9c4.9,1.9,13.9,5.6,17.9,5.9l-3.7,9.4c-4-0.2-13.5-4.1-17.5-5.7
				c-7.4-2.9-10.1-2-13.6,7L111.7,342.3z M106.6,340.3l2.3-5.9c3.4-8.6,1.1-12.1-5-14.5l-2.5-1c-5.2-2-9.2-1-12.7,8.2l-2.1,5.5
				L106.6,340.3z"/>
			<path class="st4" d="M132.2,260l26.9,15c9.4,5.2,10.6,14,3.5,26.7c-7.4,13.2-15.3,15.1-24.1,10.2l-26.9-15
				c-9.1-5.1-10.1-14.3-3.4-26.4C115.2,257.9,123.8,255.3,132.2,260z M116.5,287.5l27.7,15.4c6,3.3,10.3,1.2,13.5-4.5
				c3.4-6,2.8-10.5-3.5-14l-27.4-15.3c-5.7-3.2-10.1-1.6-13.5,4.6C109.8,279.8,110.7,284.2,116.5,287.5z"/>
			<path class="st4" d="M129.3,237.7l20.2-27.4l4.8,3.6l-14,19l16,11.8l13.2-17.9l4.8,3.6l-13.2,17.9l23.5,17.3l-6.2,8.4
				L129.3,237.7z"/>
			<path class="st4" d="M203.6,197.7l-15,16l17.2,16.1l17-18.2l3.4,5.1l-23.1,24.8l-44.6-41.7l22.9-24.5l4.4,4.1l-15.8,16.9
				l14.3,13.3l15-16L203.6,197.7z"/>
			<path class="st4" d="M225.3,194.8l2.3,2.7c3.7,4.4,8.1,4.7,13.4,0.3c5.3-4.5,5.4-8.7,1.1-13.8c-4.6-5.5-8.3-6-19.4-3.2
				c-11.3,2.8-17.3,3.9-23.1-3c-5-5.9-6.9-14,4.8-23.8c11.2-9.3,18-7.2,23-1.3l1.8,2.2l-7.9,6.7l-1.7-2c-3.3-3.9-6.6-5.4-11.7-1
				c-5.1,4.3-4.1,8.2-1,11.9c3.7,4.3,6.4,4.8,16,2.3c14.5-3.8,20.1-3.9,26.6,3.9c5.5,6.6,7.6,15.1-5,25.7
				c-12.1,10.2-19.6,8.1-24.8,2l-2.3-2.7L225.3,194.8z"/>
			<path class="st4" d="M261.4,166.3l1.9,3c3.1,4.8,7.5,5.7,13.2,1.9c5.9-3.8,6.4-8,2.8-13.6c-3.9-6-7.5-6.9-18.9-5.5
				c-11.5,1.4-17.7,1.8-22.6-5.8c-4.2-6.5-5.2-14.7,7.7-23.1c12.2-7.9,18.7-4.9,23,1.5l1.5,2.4l-8.7,5.6l-1.5-2.2
				c-2.8-4.2-5.9-6.1-11.5-2.5c-5.6,3.7-5.1,7.7-2.4,11.7c3.1,4.8,5.8,5.6,15.6,4.2c14.9-2,20.4-1.4,26,7.1
				c4.7,7.2,5.7,15.9-8.1,24.9c-13.2,8.6-20.5,5.7-24.9-1.1l-1.9-2.9L261.4,166.3z"/>
			<path class="st4" d="M285.1,101.3l28.4,54.1l-9.2,4.8l-28.4-54.1L285.1,101.3z"/>
			<path class="st4" d="M345,91.6l11.4,28.6c4,10-0.6,17.6-14.1,23c-14.1,5.6-21.4,2.1-25.1-7.2l-11.4-28.7
				c-3.8-9.6,1.1-17.5,14-22.6C333.1,79.4,341.4,82.7,345,91.6z M315.5,103.1l11.8,29.4c2.5,6.4,7.3,7.4,13.4,5
				c6.4-2.6,8.8-6.4,6.1-13.1l-11.6-29.2c-2.4-6-6.9-7.6-13.4-5C315.1,93,313,96.9,315.5,103.1z"/>
			<path class="st4" d="M371.7,131.4L357.6,72l12.1-2.9c7.7,9.8,28.4,37.8,31.1,42.3l0.2-0.1c-2.5-7.9-4.6-16.2-6.9-25.9l-5-21
				l9.5-2.3l14.1,59.4l-11.7,2.8c-7.7-9.9-29.1-39.4-32-43.7l-0.1,0c2.3,7,4.8,16.4,7.4,27.2l5,21.2L371.7,131.4z"/>
			<path class="st4" d="M432.6,99.6l-2.9,19.8l-10.5,0.9l10.5-62.3l14.8-1.3l22.1,59.3l-10.8,1l-6.8-19L432.6,99.6z M447.1,92.3
				c-4.6-13.1-8-23.2-9.4-28.9l-0.4,0c0.1,4.7-2.2,18.7-3.8,30.1L447.1,92.3z"/>
			<path class="st4" d="M475.4,55.5l10.4,0.3l-1.8,55.2l24.6,0.8l-1.3,5.8l-33.8-1.1L475.4,55.5z"/>
			<path class="st4" d="M522.4,58.1l10.3,1.5l-7.9,54.6l24.3,3.5l-2,5.6l-33.5-4.8L522.4,58.1z"/>
			<path class="st4" d="M563.5,127.7l5.9-22c0.2-0.7,0.1-1.1,0-1.7l-7.9-40l11,3c1.8,11.9,4.1,26.2,4.2,32l0.1,0
				c3.3-5.2,12.6-16.6,19.6-25.6l10.6,2.9L580,107.2c-0.2,0.4-0.5,0.8-0.8,1.7l-5.7,21.5L563.5,127.7z"/>
			<path class="st4" d="M639.6,88.7l16.1,7.7c13.1,6.2,17.4,13.4,13.1,22.3l-1.6,3.4c-3.9,8.3-10.8,12.5-26.9,4.9l-6.1-2.9
				l-11.6,24.3l-9.4-4.5L639.6,88.7z M636.7,119l5.2,2.5c10,4.8,13.3,1.6,16-4.1l1.4-3c2.1-4.5,2.4-9.1-6.7-13.4l-6.1-2.9L636.7,119
				z"/>
			<path class="st4" d="M680.3,146.8l-15.6,23.9L656,165l33.4-51.1l14.3,9.3c12.3,8,16.2,15.3,10.7,23.7l-1.5,2.3
				c-4.5,6.9-10.3,7.2-15.4,5.3c4.4,4.6,5.2,8.6,0.8,15.5c-2.9,4.4-8.3,12.5-9.5,16.3l-8.5-5.5c1-3.9,6.8-12.3,9.2-15.9
				c4.3-6.6,4.1-9.5-4-14.8L680.3,146.8z M683.3,142.2l5.3,3.5c7.8,5.1,11.6,3.6,15.2-1.9l1.5-2.3c3-4.7,2.8-8.8-5.4-14.1l-4.9-3.2
				L683.3,142.2z"/>
			<path class="st4" d="M739.9,190.8l-16.7-14.2l-15.3,18l19,16.1l-4.9,3.6l-25.8-21.9l39.5-46.6l25.6,21.7l-3.9,4.6l-17.7-15
				L727.1,172l16.7,14.2L739.9,190.8z"/>
			<path class="st4" d="M772.7,178.7l12.1,13.2c9.8,10.7,11.1,18.9,3.8,25.6l-2.7,2.5c-6.8,6.2-14.7,7.6-26.7-5.5l-4.6-5l-19.8,18.2
				l-7-7.7L772.7,178.7z M758.6,205.7l3.9,4.3c7.5,8.2,11.7,6.5,16.4,2.2l2.4-2.2c3.6-3.3,5.7-7.5-1.1-14.9l-4.5-4.9L758.6,205.7z"
				/>
			<path class="st4" d="M780.8,252.3l-18.7,7.3l-6-8.6l59.3-21.8l8.5,12.1L783.3,290l-6.2-8.9l13.1-15.3L780.8,252.3z M794.3,261.2
				c9.1-10.5,16.2-18.4,20.4-22.5l-0.2-0.3c-4.1,2.4-17.3,7.4-28,11.6L794.3,261.2z"/>
			<path class="st4" d="M816.5,292.1l-25.4,13l-4.7-9.3l54.3-27.9l7.8,15.2c6.7,13.1,6.5,21.3-2.5,25.9l-2.5,1.3
				c-7.4,3.8-12.5,1.2-16-3c1.5,6.2,0.3,10.1-7,13.8c-4.6,2.4-13.4,6.7-16.3,9.5l-4.6-9c2.8-2.8,12.1-7.3,15.9-9.3
				c7-3.6,8.2-6.2,3.8-14.8L816.5,292.1z M821.5,289.6l2.9,5.7c4.2,8.3,8.3,8.9,14.1,5.9l2.4-1.2c5-2.5,6.8-6.2,2.4-14.9l-2.7-5.2
				L821.5,289.6z"/>
			<path class="st4" d="M846.5,359.9l-7.5-20.6l-22.2,8l8.5,23.4l-6.1,0.7l-11.5-31.8l57.4-20.8l11.4,31.6l-5.7,2l-7.9-21.8
				l-18.3,6.6l7.5,20.6L846.5,359.9z"/>
			<path class="st4" d="M881.1,365.9l3.8,17.3c4.5,20.6-2.9,25-12.3,27l-23.6,5.2c-9.2,2-19.2,1.8-23.9-19.8l-3.7-16.7L881.1,365.9z
				 M829.2,388l1.3,5.8c2.5,11.6,7.2,13.4,15,11.7l25.6-5.6c6.9-1.5,10.7-4.4,8-16.6l-1.3-5.8L829.2,388z"/>
		</g>
	</g>
	<g>
		<g>
			<circle class="st4" cx="86.6" cy="475.4" r="14.7"/>
		</g>
		<g>
			<circle class="st4" cx="864.2" cy="475.4" r="14.7"/>
		</g>
	</g>
	<g>
		<g>
			<g>
				<path class="st4" d="M888,554.9l-4.2,17.2c-4.9,20.5-13.5,21.2-22.9,18.9l-23.4-5.6c-9.1-2.2-18-6.7-12.8-28.2l4-16.6L888,554.9
					z M831.7,552l-1.4,5.7c-2.8,11.5,0.6,15.2,8.4,17l25.4,6.1c6.9,1.7,11.5,0.7,14.5-11.4l1.4-5.8L831.7,552z"/>
				<path class="st4" d="M830.1,634.4l8.1-20.4l-21.9-8.7l-9.1,23.1l-5-3.5l12.5-31.5l56.8,22.5l-12.3,31.2l-5.6-2.2l8.5-21.5
					l-18.1-7.2l-8.1,20.4L830.1,634.4z"/>
				<path class="st4" d="M850.5,664.3l-5,9.1L797.1,647l-11.8,21.6l-4.6-3.8l16.2-29.7L850.5,664.3z"/>
				<path class="st4" d="M819.5,715.7l-50.5-34.4l5.9-8.6l50.5,34.4L819.5,715.7z"/>
				<path class="st4" d="M752.6,703l57.5,26.7l-7.3,8.5l-25.1-12.8c-7.8-4-17.6-8.6-23-12l-0.1,0.2c4.1,4.6,10.2,13.7,15.3,20.6
					l16.7,23l-7.2,8.4l-35.4-52.6L752.6,703z"/>
				<path class="st4" d="M721.6,776l16.3-14.6l-15.8-17.6l-18.5,16.6l-2.9-5.4l25.2-22.6l40.8,45.4l-25,22.4l-4-4.5l17.2-15.5
					l-13-14.5l-16.3,14.6L721.6,776z"/>
				<path class="st4" d="M699.4,791.3l-16-23.6l8.6-5.9l34.4,50.5l-14.1,9.6c-12.1,8.3-20.3,9.1-26,0.7l-1.6-2.3
					c-4.7-6.9-2.7-12.3,1-16.2c-5.9,2.3-10,1.5-14.6-5.2c-2.9-4.3-8.3-12.5-11.4-15l8.4-5.7c3.2,2.5,8.8,11.1,11.2,14.6
					c4.5,6.5,7.2,7.4,15.2,2L699.4,791.3z M702.5,795.9l-5.3,3.6c-7.7,5.2-7.8,9.4-4.1,14.8l1.5,2.2c3.1,4.6,7,6,15.1,0.5l4.9-3.3
					L702.5,795.9z"/>
				<path class="st4" d="M632.8,830.8l19.6-9.8l-10.5-21.1L619.6,811l-1.4-6l30.3-15.1l27.3,54.6l-30,15l-2.7-5.4l20.7-10.3
					l-8.7-17.5l-19.6,9.8L632.8,830.8z"/>
				<path class="st4" d="M627.5,867.2l-16.8,5.6c-20,6.7-25.1-0.2-28.2-9.4l-7.7-22.9c-3-8.9-3.9-18.8,17.1-25.9l16.2-5.4
					L627.5,867.2z M600,817.9l-5.6,1.9c-11.2,3.8-12.5,8.6-10,16.2l8.3,24.8c2.2,6.7,5.5,10.2,17.4,6.2l5.7-1.9L600,817.9z"/>
				<path class="st4" d="M532.7,885.2l15.7-2l0.8,6l-41.6,5.2l-0.8-6l15.6-2l-6.9-54.6l10.3-1.3L532.7,885.2z"/>
				<path class="st4" d="M451.2,879.7l0.5-30.8c0.2-10.7,7.3-16,21.9-15.8c15.1,0.2,20.6,6.4,20.4,16.4l-0.5,30.8
					c-0.2,10.4-7.8,15.7-21.6,15.5C457.4,895.6,451.1,889.4,451.2,879.7z M482.9,880.5l0.5-31.7c0.1-6.9-3.8-9.7-10.4-9.8
					c-6.9-0.1-10.6,2.5-10.7,9.7l-0.5,31.4c-0.1,6.5,3.4,9.6,10.5,9.8C479.3,890.1,482.8,887.2,482.9,880.5z"/>
				<path class="st4" d="M406.3,827.4l-4.7,22.3c-0.1,0.7-0.1,1.1,0.1,1.7l10,39.5l-11.2-2.4c-2.5-11.8-5.5-25.9-5.9-31.7l-0.1,0
					c-3.1,5.4-11.6,17.2-18.2,26.6l-10.8-2.3l25.4-32.5c0.2-0.4,0.5-0.8,0.7-1.7l4.6-21.7L406.3,827.4z"/>
				<path class="st4" d="M317.3,848.6l10.5-28.9c3.7-10.1,12.1-12.7,25.8-7.7c14.2,5.2,17.4,12.7,13.9,22.1l-10.5,29
					c-3.5,9.7-12.5,12.3-25.5,7.6C318,865.7,314,857.7,317.3,848.6z M347,859.7l10.8-29.8c2.3-6.5-0.5-10.4-6.6-12.6
					c-6.5-2.4-10.8-1.1-13.3,5.7l-10.7,29.5c-2.2,6.1,0.1,10.2,6.7,12.6C340.5,867.6,344.7,866,347,859.7z"/>
				<path class="st4" d="M283.1,848.6l22.8-41.6c2.4-4.4,1.6-8.8-4.8-12.3c-6.6-3.6-10.4-2-12.8,2.6L265.4,839l-9.2-5l22.7-41.5
					c4.5-8.3,13-9.6,25.2-2.9c11.9,6.5,15.6,13.9,10.9,22.4l-22.8,41.6L283.1,848.6z"/>
				<path class="st4" d="M247.5,788.5l17.2-22.7l8.3,6.3l-36.9,48.6l-13.6-10.3c-11.7-8.9-15-16.4-8.9-24.4l1.7-2.2
					c5-6.6,10.8-6.5,15.7-4.2c-4.1-4.9-4.6-9,0.3-15.5c3.2-4.2,9.2-11.8,10.6-15.6l8.1,6.1c-1.3,3.8-7.7,11.8-10.3,15.2
					c-4.8,6.3-4.7,9.2,3,15L247.5,788.5z M244.2,792.9l-5.1-3.9c-7.4-5.6-11.4-4.4-15.3,0.8l-1.6,2.2c-3.4,4.4-3.5,8.6,4.3,14.5
					l4.7,3.6L244.2,792.9z"/>
				<path class="st4" d="M170.7,764.6l-11.6-13.4c-13.8-16-9.4-23.3-2-29.7l18.2-15.8c7.1-6.1,16-10.7,30.4,6l11.2,12.9L170.7,764.6
					z M205.8,720.5l-3.9-4.5c-7.7-9-12.7-8.3-18.8-3.1l-19.8,17.1c-5.3,4.6-7.3,9,0.9,18.4l3.9,4.5L205.8,720.5z"/>
				<path class="st4" d="M121.7,673.2l26-16.4c9.1-5.7,17.4-2.6,25.2,9.7c8.1,12.8,5.9,20.7-2.5,26l-26.1,16.5
					c-8.8,5.5-17.4,2.1-24.8-9.6C111.7,687.1,113.5,678.3,121.7,673.2z M138.3,700.1l26.8-16.9c5.8-3.7,6-8.5,2.5-14
					c-3.7-5.8-7.9-7.5-14-3.6l-26.5,16.7c-5.5,3.5-6.2,8.1-2.5,14.1C128.4,702.4,132.7,703.7,138.3,700.1z"/>
				<path class="st4" d="M96.3,618.6l28.2-12.4c9.8-4.3,17.6,0,23.4,13.3c6.1,13.9,2.8,21.3-6.4,25.4l-28.2,12.4
					c-9.5,4.2-17.5-0.6-23.1-13.2C84.4,630.9,87.4,622.5,96.3,618.6z M108.7,647.8l29-12.7c6.3-2.8,7.2-7.5,4.5-13.5
					c-2.8-6.3-6.7-8.6-13.3-5.7l-28.7,12.6c-5.9,2.6-7.3,7.1-4.5,13.6C98.6,648.5,102.6,650.5,108.7,647.8z"/>
				<path class="st4" d="M104,585l27.5-7.5l2.7,10l-58.9,16.1l-4.5-16.5c-3.9-14.2-2-22.2,7.8-24.8l2.7-0.7c8-2.2,12.5,1.4,15,6.2
					c-0.2-6.4,1.8-9.9,9.7-12.1c5-1.4,14.5-3.8,17.9-5.9l2.7,9.8c-3.3,2.2-13.3,4.7-17.4,5.8c-7.6,2.1-9.3,4.4-6.8,13.7L104,585z
					 M98.7,586.5l-1.7-6.2c-2.4-9-6.3-10.4-12.6-8.7l-2.6,0.7c-5.4,1.5-8,4.7-5.4,14.1l1.5,5.7L98.7,586.5z"/>
			</g>
		</g>
	</g>
	<g>
		<path class="st4" d="M429.4,649.9h-46.6v-349h58.9c49.4,135.3,78,238.9,82.4,258.4h0.6c-2.5-44.1-2.9-94.6-2.9-151.7V300.9h46.4
			v349h-56.6c-50-139.9-79.8-250.6-84.3-268.3h-0.5c2.5,42.7,2.7,94.9,2.7,157.6L429.4,649.9L429.4,649.9z"/>
	</g>
</g>
</svg>
