<?xml version="1.0" encoding="utf-8"?>
<!-- Generator: Adobe Illustrator 25.0.0, SVG Export Plug-In . SVG Version: 6.00 Build 0)  -->
<svg version="1.1" id="Layer_1" xmlns="http://www.w3.org/2000/svg" xmlns:xlink="http://www.w3.org/1999/xlink" x="0px" y="0px"
	 viewBox="0 0 71 71.3" style="enable-background:new 0 0 71 71.3;" xml:space="preserve">
<style type="text/css">
	.st0{fill:#FFFFFF;stroke:#000000;stroke-miterlimit:10;}
	.st1{fill:#CAFBE2;}
	.st2{fill:#292929;}
</style>
<g id="Twitter_1_" transform="translate(138.001)">
	<path id="Shape_1_" class="st2" d="M-102.3,71.3c-19.7,0-35.7-16-35.7-35.7c0-14.3,8.6-27.3,21.8-32.9C-98-4.8-77.1,4-69.7,22.2
		c7.3,17.9-1,38.4-18.8,46.2C-92.8,70.3-97.5,71.3-102.3,71.3z M-118.6,46.9L-118.6,46.9c3.2,2.1,7,3.2,10.8,3.2
		c3,0,5.9-0.6,8.6-1.8c2.4-1.1,4.5-2.7,6.3-4.7c3.3-3.7,5.1-8.5,5.2-13.5c0-0.3,0-0.6,0-0.9c1.4-1,2.6-2.2,3.5-3.6
		c-1.3,0.6-2.6,0.9-4,1.1c1.5-0.9,2.6-2.3,3.1-3.9c-1.4,0.8-2.9,1.4-4.5,1.7c-2.7-2.8-7.1-3-9.9-0.3c-1.4,1.3-2.2,3.2-2.2,5.1
		c0,0.5,0.1,1.1,0.2,1.6c-5.7-0.3-10.9-3-14.5-7.3c-1.9,3.2-0.9,7.3,2.2,9.4c-1.1,0-2.2-0.3-3.2-0.9V32c0,3.3,2.4,6.2,5.6,6.9
		c-0.6,0.2-1.2,0.2-1.9,0.2c-0.4,0-0.9,0-1.3-0.1c0.9,2.9,3.6,4.8,6.6,4.9c-2.5,2-5.6,3-8.7,3C-117.4,46.9-118,46.9-118.6,46.9
		L-118.6,46.9z"/>
</g>
</svg>
