<?xml version="1.0" encoding="utf-8"?>
<!-- Generator: Adobe Illustrator 25.0.0, SVG Export Plug-In . SVG Version: 6.00 Build 0)  -->
<svg version="1.1" id="Layer_1" xmlns="http://www.w3.org/2000/svg" xmlns:xlink="http://www.w3.org/1999/xlink" x="0px" y="0px"
	 viewBox="0 0 52.8 52.8" style="enable-background:new 0 0 52.8 52.8;" xml:space="preserve">
<style type="text/css">
	.st0{fill:#FFFFFF;stroke:#000000;stroke-miterlimit:10;}
	.st1{fill:#CAFBE2;}
</style>
<g id="Twitter" transform="translate(172.587 1.25)">
	<path id="Shape" class="st1" d="M-146.2,51.6c-14.6,0-26.4-11.8-26.4-26.4c0-10.6,6.4-20.2,16.1-24.3c13.4-5.7,28.9,0.6,34.6,14.1
		s-0.6,28.9-14.1,34.6l0,0C-139.2,50.9-142.7,51.6-146.2,51.6z M-158.2,33.5L-158.2,33.5c2.4,1.5,5.1,2.3,8,2.3
		c2.2,0,4.4-0.4,6.3-1.3c1.8-0.8,3.4-2,4.6-3.5c2.4-2.8,3.8-6.3,3.8-10c0-0.2,0-0.4,0-0.7c1-0.7,1.9-1.6,2.6-2.7
		c-0.9,0.4-2,0.7-3,0.8c1.1-0.7,1.9-1.7,2.3-2.9c-1,0.6-2.1,1-3.3,1.3c-2-2.1-5.3-2.2-7.3-0.3c-1.1,1-1.7,2.4-1.7,3.8
		c0,0.4,0,0.8,0.1,1.2c-4.2-0.2-8.1-2.2-10.7-5.4c-1.4,2.4-0.7,5.4,1.6,6.9c-0.8,0-1.6-0.3-2.4-0.7v0.1c0,2.5,1.7,4.6,4.2,5.1
		c-0.4,0.1-0.9,0.2-1.4,0.2c-0.3,0-0.7,0-1-0.1c0.7,2.1,2.6,3.6,4.9,3.6c-1.8,1.5-4.1,2.2-6.5,2.2
		C-157.4,33.6-157.8,33.6-158.2,33.5z"/>
</g>
</svg>
