<?xml version="1.0" encoding="utf-8"?>
<!-- Generator: Adobe Illustrator 25.0.0, SVG Export Plug-In . SVG Version: 6.00 Build 0)  -->
<svg version="1.1" id="Layer_1" xmlns="http://www.w3.org/2000/svg" xmlns:xlink="http://www.w3.org/1999/xlink" x="0px" y="0px"
	 viewBox="0 0 71 71.3" style="enable-background:new 0 0 71 71.3;" xml:space="preserve">
<style type="text/css">
	.st0{fill:#FFFFFF;stroke:#000000;stroke-miterlimit:10;}
	.st1{fill:#CAFBE2;}
	.st2{fill:#292929;}
</style>
<g id="Facebook_1_" transform="translate(0 0.309)">
	<path id="Shape-3_1_" class="st2" d="M35.7,70.9C16,70.9,0,54.9,0,35.2C0,20.9,8.6,7.9,21.8,2.3C40-5.1,60.9,3.7,68.3,21.9
		c7.3,17.9-1,38.4-18.8,46.2C45.2,70,40.5,71,35.7,70.9z M25.4,30v5.5h5.7v16.6h6.3V35.6h5.7l1-5.5h-6.7v-3.9c0-1.1,0.7-1.9,1.3-1.9
		h5.4v-5.9h-5.4c-2.1,0-4.1,0.9-5.5,2.5c-1.4,1.7-2.2,3.8-2.2,6V30H25.4z"/>
</g>
</svg>
