<?xml version="1.0" encoding="utf-8"?>
<!-- Generator: Adobe Illustrator 25.0.0, SVG Export Plug-In . SVG Version: 6.00 Build 0)  -->
<svg version="1.1" id="Layer_1" xmlns="http://www.w3.org/2000/svg" xmlns:xlink="http://www.w3.org/1999/xlink" x="0px" y="0px"
	 viewBox="0 0 71 71.3" style="enable-background:new 0 0 71 71.3;" xml:space="preserve">
<style type="text/css">
	.st0{fill:#FFFFFF;stroke:#000000;stroke-miterlimit:10;}
	.st1{fill:#CAFBE2;}
	.st2{fill:#292929;}
</style>
<g id="Instagram_1_" transform="translate(276.002 0.309)">
	<path id="Shape-2_1_" class="st2" d="M-240.3,70.9c-19.7,0-35.7-16-35.7-35.7c0-14.3,8.6-27.3,21.8-32.9
		c18.3-7.4,39.1,1.3,46.6,19.6c7.3,17.9-1,38.4-18.8,46.2C-230.8,70-235.5,71-240.3,70.9z M-254.8,16.6c-2.3,0-4.1,1.9-4.1,4.1v28.9
		c0,2.3,1.9,4.1,4.1,4.1h28.9c2.3,0,4.1-1.9,4.1-4.1V20.8c0-2.3-1.9-4.1-4.1-4.1H-254.8z M-227.3,50.1h-26c-1,0-1.9-0.8-1.9-1.9
		V33.4h3.9c-0.1,0.6-0.2,1.2-0.2,1.9c0,6.2,5,11.2,11.2,11.2c6.2,0,11.2-5,11.2-11.2c0-0.6-0.1-1.2-0.2-1.9h3.9v14.9
		C-225.4,49.3-226.3,50.1-227.3,50.1z M-240.3,42.7c-4.1,0-7.4-3.3-7.4-7.4s3.3-7.4,7.4-7.4c4.1,0,7.4,3.3,7.4,7.4l0,0
		C-232.9,39.3-236.2,42.7-240.3,42.7z M-226.9,27.4h-4.5c-0.6,0-1.1-0.5-1.1-1.1v-4.5c0-0.6,0.5-1.1,1.1-1.1h4.5
		c0.6,0,1.1,0.5,1.1,1.1v4.5C-225.8,26.9-226.3,27.4-226.9,27.4z"/>
</g>
</svg>
