<?xml version="1.0" encoding="utf-8"?>
<!-- Generator: Adobe Illustrator 25.0.0, SVG Export Plug-In . SVG Version: 6.00 Build 0)  -->
<svg version="1.1" id="Layer_1" xmlns="http://www.w3.org/2000/svg" xmlns:xlink="http://www.w3.org/1999/xlink" x="0px" y="0px"
	 viewBox="0 0 950.8 950.8" style="enable-background:new 0 0 950.8 950.8;" xml:space="preserve">
<style type="text/css">
	.st0{fill:#F3B762;}
	.st1{fill:#2A2A2A;}
	.st2{fill:#E2E2E2;}
	.st3{fill:#CB4440;}
	.st4{fill:#CAFBE2;}
	.st5{fill:#253A3D;}
	.st6{fill:#0D0D0D;}
	.st7{fill:#177F7A;}
	.st8{fill:#FFA397;}
	.st9{fill:#FFFFFF;}
	.st10{fill:#FFF2D2;}
</style>
<g>
	<path class="st1" d="M475.4,943.3c-63.2,0-124.4-12.4-182.1-36.8c-55.7-23.6-105.8-57.3-148.7-100.3c-43-43-76.7-93-100.3-148.7
		c-24.4-57.7-36.8-119-36.8-182.1S19.9,351,44.3,293.3c23.6-55.7,57.3-105.8,100.3-148.7c43-43,93-76.7,148.7-100.3
		C351,19.9,412.3,7.5,475.4,7.5s124.4,12.4,182.1,36.8c55.7,23.6,105.8,57.3,148.7,100.3s76.7,93,100.3,148.7
		c24.4,57.7,36.8,119,36.8,182.1S931,599.9,906.6,657.6c-23.6,55.7-57.3,105.8-100.3,148.7s-93,76.7-148.7,100.3
		C599.9,931,538.6,943.3,475.4,943.3z"/>
	<path class="st8" d="M475.4,15c254.3,0,460.4,206.1,460.4,460.4S729.7,935.8,475.4,935.8S15,729.7,15,475.4S221.1,15,475.4,15
		 M475.4,0C411.2,0,349,12.6,290.4,37.4c-56.6,23.9-107.5,58.2-151.1,101.9S61.3,233.7,37.4,290.4C12.6,349,0,411.2,0,475.4
		s12.6,126.4,37.4,185.1c23.9,56.6,58.2,107.5,101.9,151.1c43.7,43.7,94.5,77.9,151.1,101.9c58.6,24.8,120.9,37.4,185.1,37.4
		s126.4-12.6,185.1-37.4c56.6-23.9,107.5-58.2,151.1-101.9c43.7-43.7,77.9-94.5,101.9-151.1c24.8-58.6,37.4-120.9,37.4-185.1
		S938.3,349,913.5,290.4c-23.9-56.6-58.2-107.5-101.9-151.1S717.1,61.3,660.5,37.4C601.9,12.6,539.6,0,475.4,0L475.4,0z"/>
</g>
<g>
	<g>
		<path class="st8" d="M59.3,399.4l9.5-41.7l8.7,2l-6,26.7l20.3,4.6l5.7-25.3l8.7,2l-5.7,25.3l32.3,7.3l-3.4,15L59.3,399.4z"/>
		<path class="st8" d="M116.3,340.4l30.4,12.1l-5.7,14.3l-66.7-26.6l8.4-21c6.4-16.1,14.2-23.3,25.7-18.7l2.8,1.1
			c9.7,3.9,10.4,11.2,9.6,16.4c4.3-5.8,8.6-8,17.6-4.4c5.6,2.3,16.3,6.7,20.9,7.2l-5.5,13.9c-4.6-0.2-15.6-4.9-20.4-6.8
			c-8.3-3.3-11.2-2.4-15.2,7.6L116.3,340.4z M108.8,337.4l2-5.1c3.7-9.3,2.2-13.4-5-16.2l-2.6-1c-5.5-2.2-9.7-1.4-13.7,8.4l-2.2,5.4
			L108.8,337.4z"/>
		<path class="st8" d="M156.3,259.9l-13,21.9l21.3,12.7l14.9-25l6.6,6.2l-21.8,36.5l-61.6-36.8l21.7-36.3l7.7,4.6l-13.8,23.1
			l17.5,10.5l13-21.9L156.3,259.9z"/>
		<path class="st8" d="M181.5,247.9l3.3,2.7c4.6,3.8,9,3.5,13.7-2.2c4.7-5.8,3.2-10.1-1.4-13.9c-6.2-5.1-10.1-4.7-22.5,0.9
			c-12.5,5.7-19.5,8.2-27.7,1.5c-7.2-5.9-11.4-15.2,1-30.3c12.4-15,21.3-12.6,27.8-7.3l2.8,2.3l-9.7,11.8l-2.6-2.1
			c-4.2-3.4-7.8-4.4-12,0.8c-4.2,5.1-2.5,8.8,1.4,12c4.4,3.6,7.5,3.9,17.7-1c16.6-7.9,23.3-9.1,32.5-1.5c7.8,6.4,11.8,16.5-1.3,32.4
			c-12.8,15.5-22.3,14.4-29.6,8.4l-3.2-2.7L181.5,247.9z"/>
		<path class="st8" d="M179.2,172.9l11.6-10.1l18.9,21.9l15.9-13.8L206.8,149l11.6-10.1l47,54.2l-11.6,10.1l-22.3-25.7l-15.9,13.8
			l22.3,25.7l-11.6,10.1L179.2,172.9z"/>
		<path class="st8" d="M261.1,110.7l13.6-7.2l29.7,55.7l25.5-13.6l2.8,8.3L294.9,174L261.1,110.7z"/>
		<path class="st8" d="M369.3,84.5l11.2,32.8c4.3,12.6-2,21.5-19.5,27.5c-17.3,5.9-26.7,1.9-30.8-10.1l-11.3-32.9
			c-4.3-12.4,3.3-21.7,19.1-27.1C354.3,69,365.1,72.4,369.3,84.5z M333.5,95.9l11.9,34.6c2.2,6.5,6.9,8,13.5,5.7
			c7-2.4,9.5-6.2,7.1-13.1l-11.8-34.4c-2.1-6.2-6.4-8.2-13.6-5.8C333.8,85.4,331.3,89.5,333.5,95.9z"/>
		<path class="st8" d="M440.5,104.2l0.4,2.6c1.4,8.5,0.8,19.6-21.7,23.3c-20.4,3.4-25.8-4.4-27.5-15l-5.9-35.8
			c-1.8-11.1,4.9-19.2,21.7-22c20.3-3.3,25.5,4.7,27.1,14.3l0.5,3L419.8,77l-0.7-4c-0.8-5.1-3-8.3-10.3-7.1c-7,1.2-8.5,4.8-7.6,10.2
			l6.1,37.2c0.9,5.7,3.5,9.4,10.9,8.2c7.4-1.2,8.4-5.3,7.4-11.2l-0.6-3.5L440.5,104.2z"/>
		<path class="st8" d="M466.1,103.7l-5,20.7l-15.6-0.3l19.8-71.5l21.8,0.4l18.2,72.1l-16.1-0.3l-4.8-20.8L466.1,103.7z M482.7,95.1
			c-3-13.8-5.5-25.6-6.6-33.2l-0.6,0c-0.6,5.8-4.5,21.4-7.4,33L482.7,95.1z"/>
		<path class="st8" d="M523.2,55.1l15.2,2.4l-9.7,62.4l28.5,4.5l-2.8,8.3l-42.3-6.6L523.2,55.1z"/>
		<path class="st8" d="M608.4,73.4l14.3,5.7l-10.8,26.9l19.6,7.8l10.8-26.9l14.3,5.7l-26.7,66.6l-14.3-5.7l12.6-31.6l-19.6-7.8
			L596,145.7l-14.3-5.7L608.4,73.4z"/>
		<path class="st8" d="M693.7,158.2L672,145l-12.9,21.2l24.9,15.2l-6.3,6.5l-36.3-22.1l37.3-61.3l36.1,22l-4.6,7.6l-23-14
			l-10.6,17.4l21.7,13.2L693.7,158.2z"/>
		<path class="st8" d="M708.6,186l-17,12.8l-11.9-10.1l60.7-42.6l16.6,14.1l-31.7,67.2L713,217l9.6-19.1L708.6,186z M726.9,189.9
			c6.4-12.5,12.1-23.3,16-29.8l-0.4-0.4c-4.1,4.1-17.1,13.6-26.6,20.8L726.9,189.9z"/>
		<path class="st8" d="M784,186.1l10,11.7L746.2,239l18.8,21.9l-7.5,4.5l-28-32.5L784,186.1z"/>
		<path class="st8" d="M819.6,245.8l-10-15.6l7.5-4.8l28.3,44.1l-7.5,4.8l-10-15.6L775,292.7l-8.3-13L819.6,245.8z"/>
		<path class="st8" d="M853.3,284.4l6.1,14.1L832.9,310l8.4,19.4l26.6-11.5l6.1,14.1L808,360.4l-6.1-14.1l31.2-13.5l-8.4-19.4
			l-31.2,13.5l-6.1-14.1L853.3,284.4z"/>
		<path class="st8" d="M814.7,385.4l25.3-6.1c0.8-0.2,1.3-0.5,2-1.1l37.3-30.9l4,16.5c-10.7,7.8-23.2,16.9-29.8,20.4l0,0.2
			c8.1,0.4,23.2,2.9,35.9,4.6l3.8,15.9l-48.1-10.7c-0.5,0-1.2-0.1-2.5,0.2l-24.3,5.9L814.7,385.4z"/>
	</g>
</g>
<g>
	<g>
		<circle class="st8" cx="95.1" cy="475.4" r="14.4"/>
	</g>
	<g>
		<circle class="st8" cx="855.8" cy="475.4" r="14.4"/>
	</g>
</g>
<g>
	<g>
		<path class="st8" d="M892,549.3l-9.2,41.7l-8.7-1.9l5.9-26.7l-20.3-4.5l-5.6,25.3l-8.7-1.9l5.6-25.3l-32.4-7.2l3.3-15L892,549.3z"
			/>
		<path class="st8" d="M835.2,608.6l-30.4-12l5.6-14.3l66.8,26.3l-8.3,21.1c-6.4,16.2-14,23.4-25.6,18.8l-2.8-1.1
			c-9.8-3.8-10.5-11.1-9.7-16.4c-4.3,5.8-8.6,8-17.6,4.5c-5.7-2.2-16.4-6.6-21-7.1l5.5-13.9c4.6,0.2,15.6,4.8,20.4,6.7
			c8.4,3.3,11.2,2.3,15.1-7.7L835.2,608.6z M842.7,611.5l-2,5.1c-3.7,9.3-2.1,13.4,5.1,16.2l2.6,1c5.6,2.2,9.7,1.4,13.6-8.5l2.1-5.4
			L842.7,611.5z"/>
		<path class="st8" d="M795.6,689.3l12.9-21.9l-21.3-12.6l-14.8,25.1l-6.6-6.2l21.6-36.7l61.8,36.5l-21.5,36.4l-7.7-4.5l13.7-23.2
			l-17.6-10.4l-12.9,21.9L795.6,689.3z"/>
		<path class="st8" d="M770.5,701.5l-3.4-2.7c-4.6-3.7-9.1-3.4-13.6,2.2c-4.7,5.8-3.2,10.1,1.5,13.9c6.2,5.1,10.1,4.6,22.5-1.1
			c12.5-5.7,19.5-8.3,27.7-1.7c7.2,5.9,11.5,15.2-0.9,30.3c-12.3,15.1-21.3,12.7-27.7,7.4l-2.8-2.3l9.6-11.8l2.6,2.1
			c4.2,3.4,7.8,4.3,12-0.9c4.2-5.2,2.5-8.8-1.5-12c-4.5-3.6-7.5-3.8-17.7,1.1c-16.5,8-23.3,9.2-32.5,1.7
			c-7.9-6.4-11.9-16.4,1.1-32.4c12.7-15.6,22.3-14.5,29.6-8.6l3.3,2.7L770.5,701.5z"/>
		<path class="st8" d="M773.2,776.4l-11.6,10.1l-19.1-21.8l-15.9,13.9l19.1,21.8l-11.6,10.1l-47.3-54l11.6-10.1l22.4,25.6l15.9-13.9
			l-22.4-25.6l11.6-10.1L773.2,776.4z"/>
		<path class="st8" d="M691.6,839l-13.6,7.3l-30-55.6l-25.4,13.7l-2.8-8.3l37.7-20.3L691.6,839z"/>
		<path class="st8" d="M583.6,865.8l-11.4-32.7c-4.4-12.5,1.9-21.5,19.4-27.6c17.3-6,26.7-2.1,30.9,9.9l11.5,32.9
			c4.3,12.4-3.2,21.7-19,27.2C598.6,881.2,587.8,877.9,583.6,865.8z M619.3,854.2l-12.1-34.5c-2.3-6.5-7-8-13.5-5.7
			c-7,2.4-9.4,6.3-7,13.1l12,34.4c2.1,6.1,6.4,8.2,13.7,5.7C619.1,864.7,621.5,860.6,619.3,854.2z"/>
		<path class="st8" d="M512.3,846.4l-0.4-2.6c-1.4-8.5-0.9-19.6,21.6-23.4c20.4-3.5,25.8,4.3,27.6,14.9l6.1,35.8
			c1.9,11.1-4.8,19.2-21.6,22.1c-20.3,3.4-25.5-4.6-27.2-14.1l-0.5-3l15.3-2.6l0.7,4c0.9,5.1,3.1,8.3,10.4,7.1
			c7-1.2,8.5-4.8,7.6-10.2l-6.3-37.1c-1-5.7-3.5-9.4-11-8.1c-7.4,1.3-8.4,5.4-7.4,11.2l0.6,3.5L512.3,846.4z"/>
		<path class="st8" d="M487.2,846.8l4.3-20.8l15.6-0.3l-17.5,72.1l-21.8,0.4l-20.5-71.4l16.1-0.3l5.4,20.7L487.2,846.8z
			 M470.9,855.9c3.4,13.7,6.3,25.5,7.6,33l0.6,0c0.4-5.8,3.8-21.5,6.3-33.2L470.9,855.9z"/>
		<path class="st8" d="M429.7,895.9l-15.2-2.3l9.4-62.4l-28.6-4.3l2.7-8.3l42.4,6.4L429.7,895.9z"/>
		<path class="st8" d="M344.5,878.2l-14.3-5.7l10.6-26.9l-19.6-7.7l-10.6,26.9l-14.3-5.7l26.3-66.8l14.3,5.7l-12.5,31.6l19.6,7.7
			l12.5-31.6l14.3,5.7L344.5,878.2z"/>
		<path class="st8" d="M258.8,793.8l21.8,13.1l12.8-21.2l-25-15l6.3-6.6l36.5,21.9l-37,61.5l-36.2-21.8l4.6-7.6l23,13.9l10.5-17.5
			l-21.8-13.1L258.8,793.8z"/>
		<path class="st8" d="M243.7,766.1l16.9-12.9l12,10.1l-60.5,42.9l-16.7-14l31.4-67.4l12.3,10.4l-9.5,19.2L243.7,766.1z
			 M225.4,762.2c-6.4,12.6-12,23.3-15.9,29.9l0.4,0.4c4.1-4.1,17-13.7,26.5-20.9L225.4,762.2z"/>
		<path class="st8" d="M168.4,766.3l-10.1-11.6l47.6-41.5l-19-21.8l7.5-4.6l28.1,32.3L168.4,766.3z"/>
		<path class="st8" d="M132.4,706.8l10.1,15.5l-7.5,4.9l-28.5-44l7.5-4.9l10.1,15.5l52.7-34.2l8.4,12.9L132.4,706.8z"/>
		<path class="st8" d="M98.5,668.4l-6.2-14.1l26.5-11.6l-8.5-19.3L83.9,635l-6.2-14.1l65.8-28.8l6.2,14.1l-31.1,13.6l8.5,19.3
			l31.1-13.6l6.2,14.1L98.5,668.4z"/>
		<path class="st8" d="M136.6,567.2l-25.2,6.2c-0.8,0.2-1.3,0.5-2,1.1l-37.2,31.1l-4.1-16.5c10.6-7.8,23.1-17,29.7-20.5l0-0.2
			c-8.1-0.4-23.3-2.7-35.9-4.4L58,548l48.2,10.4c0.5,0,1.2,0.1,2.5-0.3l24.3-6L136.6,567.2z"/>
	</g>
</g>
<g>
	<path class="st8" d="M430.4,646.1h-45.6V304.7h57.7c48.3,132.4,76.3,233.7,80.6,252.8h0.6c-2.5-43.1-2.8-92.5-2.8-148.4V304.7h45.4
		v341.4h-55.4c-48.9-136.9-78.1-245.2-82.5-262.4h-0.5c2.5,41.8,2.7,92.8,2.7,154.2L430.4,646.1L430.4,646.1z"/>
</g>
</svg>
