<svg version="1.1" id="Layer_1" xmlns="http://www.w3.org/2000/svg" x="0" y="0" viewBox="0 0 788.5 788.5" xml:space="preserve"><style type="text/css"/><path d="M347.7 570.8h-47.2V217.7h59.6c50 136.9 78.9 241.8 83.3 261.5h.6c-2.6-44.6-2.9-95.7-2.9-153.5v-108H488v353.1h-57.3c-50.6-141.6-80.7-253.6-85.3-271.5h-.5c2.5 43.2 2.8 96 2.8 159.5v112z"/><path d="M394.1 788.5c-103 0-200.2-39.4-274.3-111.3C44.2 603.9 1.6 505.5 0 400.2-1.6 295 37.9 195.3 111.3 119.7 184.6 44.2 283 1.6 388.3 0c105.3-1.6 204.9 37.9 280.5 111.2 75.6 73.3 118.1 171.7 119.7 277 1.6 105.3-37.9 204.9-111.2 280.5-73.3 75.6-171.7 118.1-277 119.7-2.1.1-4.2.1-6.2.1zm.3-742.9H389c-93.1 1.4-180.1 39-244.9 105.8-64.8 66.8-99.8 154.9-98.3 248 1.4 93.1 39 180.1 105.8 244.9 66.8 64.8 154.9 99.8 248 98.3 93.1-1.4 180.1-39 244.9-105.8s99.8-154.9 98.3-248c-1.4-93.1-39-180.1-105.8-244.9-65.5-63.4-151.5-98.3-242.6-98.3z"/></svg>